<mxfile host="app.diagrams.net" agent="Mozilla/5.0 (Windows NT 10.0; Win64; x64) AppleWebKit/537.36 (KHTML, like Gecko) Chrome/129.0.0.0 Safari/537.36" version="24.7.6" pages="8">
  <diagram name="Home" id="2cc2dc42-3aac-f2a9-1cec-7a8b7cbee084">
    <mxGraphModel dx="1863" dy="845" grid="0" gridSize="10" guides="1" tooltips="1" connect="1" arrows="1" fold="1" page="0" pageScale="0.8" pageWidth="1100" pageHeight="850" background="none" math="0" shadow="0">
      <root>
        <mxCell id="0" />
        <mxCell id="1" parent="0" />
        <mxCell id="7026571954dc6520-1" value="" style="strokeWidth=1;shadow=0;dashed=0;align=center;html=1;shape=mxgraph.mockup.containers.browserWindow;rSize=0;strokeColor=#666666;mainText=,;recursiveResize=0;rounded=0;labelBackgroundColor=none;fontFamily=Verdana;fontSize=12" parent="1" vertex="1">
          <mxGeometry x="10" y="20" width="1050" height="820" as="geometry" />
        </mxCell>
        <mxCell id="7026571954dc6520-2" value="MintVintage&amp;nbsp;" style="strokeWidth=1;shadow=0;dashed=0;align=center;html=1;shape=mxgraph.mockup.containers.anchor;fontSize=17;fontColor=#666666;align=left;" parent="7026571954dc6520-1" vertex="1">
          <mxGeometry x="60" y="12" width="110" height="26" as="geometry" />
        </mxCell>
        <mxCell id="7026571954dc6520-3" value="https://www.mintvintage.com" style="strokeWidth=1;shadow=0;dashed=0;align=center;html=1;shape=mxgraph.mockup.containers.anchor;rSize=0;fontSize=17;fontColor=#666666;align=left;" parent="7026571954dc6520-1" vertex="1">
          <mxGeometry x="130" y="60" width="250" height="26" as="geometry" />
        </mxCell>
        <mxCell id="7026571954dc6520-4" value="MintVintage Header image" style="text;html=1;points=[];align=left;verticalAlign=top;spacingTop=-4;fontSize=30;fontFamily=Verdana" parent="7026571954dc6520-1" vertex="1">
          <mxGeometry x="30" y="140" width="340" height="50" as="geometry" />
        </mxCell>
        <mxCell id="7026571954dc6520-15" value="" style="verticalLabelPosition=bottom;shadow=0;dashed=0;align=center;html=1;verticalAlign=top;strokeWidth=1;shape=mxgraph.mockup.markup.line;strokeColor=#999999;rounded=0;labelBackgroundColor=none;fillColor=#ffffff;fontFamily=Verdana;fontSize=12;fontColor=#000000;" parent="7026571954dc6520-1" vertex="1">
          <mxGeometry y="240" width="1050" height="20" as="geometry" />
        </mxCell>
        <mxCell id="7026571954dc6520-21" value="" style="verticalLabelPosition=bottom;shadow=0;dashed=0;align=center;html=1;verticalAlign=top;strokeWidth=1;shape=mxgraph.mockup.markup.line;strokeColor=#999999;rounded=0;labelBackgroundColor=none;fillColor=#ffffff;fontFamily=Verdana;fontSize=12;fontColor=#000000;" parent="7026571954dc6520-1" vertex="1">
          <mxGeometry y="580" width="1050" height="20" as="geometry" />
        </mxCell>
        <mxCell id="azA6EyP1IbwV_EvYObUY-1" value="" style="ellipse;whiteSpace=wrap;html=1;aspect=fixed;" vertex="1" parent="7026571954dc6520-1">
          <mxGeometry x="950" y="140" width="80" height="80" as="geometry" />
        </mxCell>
        <mxCell id="azA6EyP1IbwV_EvYObUY-2" value="" style="ellipse;whiteSpace=wrap;html=1;aspect=fixed;" vertex="1" parent="7026571954dc6520-1">
          <mxGeometry x="860" y="140" width="80" height="80" as="geometry" />
        </mxCell>
        <mxCell id="azA6EyP1IbwV_EvYObUY-3" value="Instagram" style="text;html=1;align=center;verticalAlign=middle;whiteSpace=wrap;rounded=0;" vertex="1" parent="7026571954dc6520-1">
          <mxGeometry x="960" y="165" width="60" height="30" as="geometry" />
        </mxCell>
        <mxCell id="azA6EyP1IbwV_EvYObUY-4" value="Facebook" style="text;html=1;align=center;verticalAlign=middle;whiteSpace=wrap;rounded=0;" vertex="1" parent="7026571954dc6520-1">
          <mxGeometry x="870" y="165" width="60" height="30" as="geometry" />
        </mxCell>
        <mxCell id="azA6EyP1IbwV_EvYObUY-5" value="Log In/Register" style="strokeWidth=1;shadow=0;dashed=0;align=center;html=1;shape=mxgraph.mockup.buttons.button;strokeColor=#666666;fontColor=#ffffff;mainText=;buttonStyle=round;fontSize=17;fontStyle=1;fillColor=#008cff;whiteSpace=wrap;" vertex="1" parent="7026571954dc6520-1">
          <mxGeometry x="700" y="155" width="150" height="50" as="geometry" />
        </mxCell>
        <mxCell id="azA6EyP1IbwV_EvYObUY-6" value="" style="verticalLabelPosition=bottom;shadow=0;dashed=0;align=center;html=1;verticalAlign=top;strokeWidth=1;shape=mxgraph.mockup.markup.line;strokeColor=#999999;" vertex="1" parent="7026571954dc6520-1">
          <mxGeometry y="300" width="1050" height="20" as="geometry" />
        </mxCell>
        <mxCell id="azA6EyP1IbwV_EvYObUY-13" value="" style="group;fontSize=14;" vertex="1" connectable="0" parent="7026571954dc6520-1">
          <mxGeometry x="30" y="265" width="990" height="30" as="geometry" />
        </mxCell>
        <mxCell id="azA6EyP1IbwV_EvYObUY-7" value="Home" style="text;html=1;align=center;verticalAlign=middle;whiteSpace=wrap;rounded=0;" vertex="1" parent="azA6EyP1IbwV_EvYObUY-13">
          <mxGeometry width="118.8" height="30" as="geometry" />
        </mxCell>
        <mxCell id="azA6EyP1IbwV_EvYObUY-8" value="New" style="text;html=1;align=center;verticalAlign=middle;whiteSpace=wrap;rounded=0;" vertex="1" parent="azA6EyP1IbwV_EvYObUY-13">
          <mxGeometry x="190.07999999999998" width="118.8" height="30" as="geometry" />
        </mxCell>
        <mxCell id="azA6EyP1IbwV_EvYObUY-9" value="Deals" style="text;html=1;align=center;verticalAlign=middle;whiteSpace=wrap;rounded=0;" vertex="1" parent="azA6EyP1IbwV_EvYObUY-13">
          <mxGeometry x="364.32" width="118.8" height="30" as="geometry" />
        </mxCell>
        <mxCell id="azA6EyP1IbwV_EvYObUY-10" value="Pokemon" style="text;html=1;align=center;verticalAlign=middle;whiteSpace=wrap;rounded=0;" vertex="1" parent="azA6EyP1IbwV_EvYObUY-13">
          <mxGeometry x="538.56" width="118.8" height="30" as="geometry" />
        </mxCell>
        <mxCell id="azA6EyP1IbwV_EvYObUY-11" value="MTG" style="text;html=1;align=center;verticalAlign=middle;whiteSpace=wrap;rounded=0;" vertex="1" parent="azA6EyP1IbwV_EvYObUY-13">
          <mxGeometry x="712.8" width="118.8" height="30" as="geometry" />
        </mxCell>
        <mxCell id="azA6EyP1IbwV_EvYObUY-12" value="Cart" style="text;html=1;align=center;verticalAlign=middle;whiteSpace=wrap;rounded=0;" vertex="1" parent="azA6EyP1IbwV_EvYObUY-13">
          <mxGeometry x="871.2" width="118.8" height="30" as="geometry" />
        </mxCell>
        <mxCell id="azA6EyP1IbwV_EvYObUY-14" value="" style="verticalLabelPosition=bottom;shadow=0;dashed=0;align=center;html=1;verticalAlign=top;strokeWidth=1;shape=mxgraph.mockup.navigation.coverFlow;strokeColor=#999999;" vertex="1" parent="7026571954dc6520-1">
          <mxGeometry x="20" y="330" width="1010" height="240" as="geometry" />
        </mxCell>
        <mxCell id="azA6EyP1IbwV_EvYObUY-16" value="&amp;nbsp;promotional imagery" style="text;html=1;align=center;verticalAlign=middle;whiteSpace=wrap;rounded=0;" vertex="1" parent="7026571954dc6520-1">
          <mxGeometry x="458" y="449" width="135" height="30" as="geometry" />
        </mxCell>
        <mxCell id="azA6EyP1IbwV_EvYObUY-17" value="&lt;h1 style=&quot;margin-top: 0px;&quot;&gt;About MintVintage&lt;/h1&gt;&lt;p&gt;Lorem ipsum dolor sit amet, consectetur adipisicing elit, sed do eiusmod tempor incididunt ut labore et dolore magna aliqua.&amp;nbsp;&lt;span style=&quot;background-color: initial;&quot;&gt;Lorem ipsum dolor sit amet, consectetur adipisicing elit, sed do eiusmod tempor incididunt ut labore et dolore magna aliqua.&lt;/span&gt;&lt;span style=&quot;background-color: initial;&quot;&gt;Lorem ipsum dolor sit amet, consectetur adipisicing elit, sed do eiusmod tempor incididunt ut labore et dolore magna aliqua.&lt;/span&gt;&lt;span style=&quot;background-color: initial;&quot;&gt;Lorem ipsum dolor sit amet, consectetur adipisicing elit, sed do eiusmod tempor incididunt ut labore et dolore magna aliqua.&lt;/span&gt;&lt;span style=&quot;background-color: initial;&quot;&gt;Lorem ipsum dolor sit amet, consectetur adipisicing elit, sed do eiusmod tempor incididunt ut labore et dolore magna aliqua.&lt;/span&gt;&lt;span style=&quot;background-color: initial;&quot;&gt;Lorem ipsum dolor sit amet, consectetur adipisicing elit, sed do eiusmod tempor incididunt ut labore et dolore magna aliqua.&lt;/span&gt;&lt;span style=&quot;background-color: initial;&quot;&gt;Lorem ipsum dolor sit amet, consectetur adipisicing elit, sed do eiusmod tempor incididunt ut labore et dolore magna aliqua.&lt;/span&gt;&lt;/p&gt;" style="text;html=1;whiteSpace=wrap;overflow=hidden;rounded=0;" vertex="1" parent="7026571954dc6520-1">
          <mxGeometry x="30" y="600" width="590" height="210" as="geometry" />
        </mxCell>
        <mxCell id="azA6EyP1IbwV_EvYObUY-20" value="" style="rounded=1;whiteSpace=wrap;html=1;" vertex="1" parent="7026571954dc6520-1">
          <mxGeometry x="690" y="632" width="330" height="138" as="geometry" />
        </mxCell>
        <mxCell id="azA6EyP1IbwV_EvYObUY-18" value="Search" style="strokeWidth=1;shadow=0;dashed=0;align=center;html=1;shape=mxgraph.mockup.forms.searchBox;strokeColor=#999999;mainText=;strokeColor2=#008cff;fontColor=#666666;fontSize=17;align=left;spacingLeft=3;whiteSpace=wrap;" vertex="1" parent="7026571954dc6520-1">
          <mxGeometry x="730" y="710" width="260" height="30" as="geometry" />
        </mxCell>
        <mxCell id="azA6EyP1IbwV_EvYObUY-19" value="&lt;font style=&quot;font-size: 18px;&quot;&gt;Looking for something specific?&lt;/font&gt;" style="text;html=1;align=center;verticalAlign=middle;whiteSpace=wrap;rounded=0;" vertex="1" parent="7026571954dc6520-1">
          <mxGeometry x="713" y="662" width="290" height="30" as="geometry" />
        </mxCell>
        <mxCell id="azA6EyP1IbwV_EvYObUY-15" value="&lt;font style=&quot;font-size: 29px;&quot;&gt;Slide Show&lt;/font&gt;" style="text;html=1;align=center;verticalAlign=middle;whiteSpace=wrap;rounded=0;" vertex="1" parent="1">
          <mxGeometry x="450" y="430" width="170" height="30" as="geometry" />
        </mxCell>
      </root>
    </mxGraphModel>
  </diagram>
  <diagram id="enAbsQ0gqtuRWwV3DycF" name="Login/Register">
    <mxGraphModel dx="2236" dy="1014" grid="0" gridSize="10" guides="1" tooltips="1" connect="1" arrows="1" fold="1" page="0" pageScale="1" pageWidth="850" pageHeight="1100" math="0" shadow="0">
      <root>
        <mxCell id="0" />
        <mxCell id="1" parent="0" />
        <mxCell id="FrsUDkPcYVR0_xmD8WcI-1" value="" style="strokeWidth=1;shadow=0;dashed=0;align=center;html=1;shape=mxgraph.mockup.containers.browserWindow;rSize=0;strokeColor=#666666;mainText=,;recursiveResize=0;rounded=0;labelBackgroundColor=none;fontFamily=Verdana;fontSize=12" vertex="1" parent="1">
          <mxGeometry x="10" y="20" width="1050" height="940" as="geometry" />
        </mxCell>
        <mxCell id="FrsUDkPcYVR0_xmD8WcI-2" value="MintVintage&amp;nbsp;" style="strokeWidth=1;shadow=0;dashed=0;align=center;html=1;shape=mxgraph.mockup.containers.anchor;fontSize=17;fontColor=#666666;align=left;" vertex="1" parent="FrsUDkPcYVR0_xmD8WcI-1">
          <mxGeometry x="60" y="12" width="110" height="26" as="geometry" />
        </mxCell>
        <mxCell id="FrsUDkPcYVR0_xmD8WcI-3" value="https://www.mintvintage.com" style="strokeWidth=1;shadow=0;dashed=0;align=center;html=1;shape=mxgraph.mockup.containers.anchor;rSize=0;fontSize=17;fontColor=#666666;align=left;" vertex="1" parent="FrsUDkPcYVR0_xmD8WcI-1">
          <mxGeometry x="130" y="60" width="250" height="26" as="geometry" />
        </mxCell>
        <mxCell id="FrsUDkPcYVR0_xmD8WcI-4" value="MintVintage Header image" style="text;html=1;points=[];align=left;verticalAlign=top;spacingTop=-4;fontSize=30;fontFamily=Verdana" vertex="1" parent="FrsUDkPcYVR0_xmD8WcI-1">
          <mxGeometry x="30" y="140" width="340" height="50" as="geometry" />
        </mxCell>
        <mxCell id="FrsUDkPcYVR0_xmD8WcI-5" value="" style="verticalLabelPosition=bottom;shadow=0;dashed=0;align=center;html=1;verticalAlign=top;strokeWidth=1;shape=mxgraph.mockup.markup.line;strokeColor=#999999;rounded=0;labelBackgroundColor=none;fillColor=#ffffff;fontFamily=Verdana;fontSize=12;fontColor=#000000;" vertex="1" parent="FrsUDkPcYVR0_xmD8WcI-1">
          <mxGeometry y="240" width="1050" height="20" as="geometry" />
        </mxCell>
        <mxCell id="FrsUDkPcYVR0_xmD8WcI-6" value="" style="verticalLabelPosition=bottom;shadow=0;dashed=0;align=center;html=1;verticalAlign=top;strokeWidth=1;shape=mxgraph.mockup.markup.line;strokeColor=#999999;rounded=0;labelBackgroundColor=none;fillColor=#ffffff;fontFamily=Verdana;fontSize=12;fontColor=#000000;" vertex="1" parent="FrsUDkPcYVR0_xmD8WcI-1">
          <mxGeometry y="660" width="1050" height="20" as="geometry" />
        </mxCell>
        <mxCell id="FrsUDkPcYVR0_xmD8WcI-7" value="" style="ellipse;whiteSpace=wrap;html=1;aspect=fixed;" vertex="1" parent="FrsUDkPcYVR0_xmD8WcI-1">
          <mxGeometry x="950" y="140" width="80" height="80" as="geometry" />
        </mxCell>
        <mxCell id="FrsUDkPcYVR0_xmD8WcI-8" value="" style="ellipse;whiteSpace=wrap;html=1;aspect=fixed;" vertex="1" parent="FrsUDkPcYVR0_xmD8WcI-1">
          <mxGeometry x="860" y="140" width="80" height="80" as="geometry" />
        </mxCell>
        <mxCell id="FrsUDkPcYVR0_xmD8WcI-9" value="Instagram" style="text;html=1;align=center;verticalAlign=middle;whiteSpace=wrap;rounded=0;" vertex="1" parent="FrsUDkPcYVR0_xmD8WcI-1">
          <mxGeometry x="960" y="165" width="60" height="30" as="geometry" />
        </mxCell>
        <mxCell id="FrsUDkPcYVR0_xmD8WcI-10" value="Facebook" style="text;html=1;align=center;verticalAlign=middle;whiteSpace=wrap;rounded=0;" vertex="1" parent="FrsUDkPcYVR0_xmD8WcI-1">
          <mxGeometry x="870" y="165" width="60" height="30" as="geometry" />
        </mxCell>
        <mxCell id="FrsUDkPcYVR0_xmD8WcI-12" value="" style="verticalLabelPosition=bottom;shadow=0;dashed=0;align=center;html=1;verticalAlign=top;strokeWidth=1;shape=mxgraph.mockup.markup.line;strokeColor=#999999;" vertex="1" parent="FrsUDkPcYVR0_xmD8WcI-1">
          <mxGeometry y="300" width="1050" height="20" as="geometry" />
        </mxCell>
        <mxCell id="FrsUDkPcYVR0_xmD8WcI-13" value="" style="group;fontSize=14;" vertex="1" connectable="0" parent="FrsUDkPcYVR0_xmD8WcI-1">
          <mxGeometry x="30" y="265" width="990" height="30" as="geometry" />
        </mxCell>
        <mxCell id="FrsUDkPcYVR0_xmD8WcI-14" value="Home" style="text;html=1;align=center;verticalAlign=middle;whiteSpace=wrap;rounded=0;" vertex="1" parent="FrsUDkPcYVR0_xmD8WcI-13">
          <mxGeometry width="118.8" height="30" as="geometry" />
        </mxCell>
        <mxCell id="FrsUDkPcYVR0_xmD8WcI-15" value="New" style="text;html=1;align=center;verticalAlign=middle;whiteSpace=wrap;rounded=0;" vertex="1" parent="FrsUDkPcYVR0_xmD8WcI-13">
          <mxGeometry x="190.07999999999998" width="118.8" height="30" as="geometry" />
        </mxCell>
        <mxCell id="FrsUDkPcYVR0_xmD8WcI-16" value="Deals" style="text;html=1;align=center;verticalAlign=middle;whiteSpace=wrap;rounded=0;" vertex="1" parent="FrsUDkPcYVR0_xmD8WcI-13">
          <mxGeometry x="364.32" width="118.8" height="30" as="geometry" />
        </mxCell>
        <mxCell id="FrsUDkPcYVR0_xmD8WcI-17" value="Pokemon" style="text;html=1;align=center;verticalAlign=middle;whiteSpace=wrap;rounded=0;" vertex="1" parent="FrsUDkPcYVR0_xmD8WcI-13">
          <mxGeometry x="538.56" width="118.8" height="30" as="geometry" />
        </mxCell>
        <mxCell id="FrsUDkPcYVR0_xmD8WcI-18" value="MTG" style="text;html=1;align=center;verticalAlign=middle;whiteSpace=wrap;rounded=0;" vertex="1" parent="FrsUDkPcYVR0_xmD8WcI-13">
          <mxGeometry x="712.8" width="118.8" height="30" as="geometry" />
        </mxCell>
        <mxCell id="FrsUDkPcYVR0_xmD8WcI-19" value="Cart" style="text;html=1;align=center;verticalAlign=middle;whiteSpace=wrap;rounded=0;" vertex="1" parent="FrsUDkPcYVR0_xmD8WcI-13">
          <mxGeometry x="871.2" width="118.8" height="30" as="geometry" />
        </mxCell>
        <mxCell id="FrsUDkPcYVR0_xmD8WcI-27" value="" style="strokeWidth=1;shadow=0;dashed=0;align=center;html=1;shape=mxgraph.mockup.forms.rrect;rSize=0;strokeColor=#999999;fillColor=#ffffff;" vertex="1" parent="FrsUDkPcYVR0_xmD8WcI-1">
          <mxGeometry x="425" y="340" width="200" height="300" as="geometry" />
        </mxCell>
        <mxCell id="FrsUDkPcYVR0_xmD8WcI-28" value="Sign In" style="strokeWidth=1;shadow=0;dashed=0;align=center;html=1;shape=mxgraph.mockup.forms.anchor;fontSize=12;fontColor=#666666;align=left;resizeWidth=1;spacingLeft=0;" vertex="1" parent="FrsUDkPcYVR0_xmD8WcI-27">
          <mxGeometry width="100" height="20" relative="1" as="geometry">
            <mxPoint x="10" y="10" as="offset" />
          </mxGeometry>
        </mxCell>
        <mxCell id="FrsUDkPcYVR0_xmD8WcI-29" value="" style="shape=line;strokeColor=#ddeeff;strokeWidth=2;html=1;resizeWidth=1;" vertex="1" parent="FrsUDkPcYVR0_xmD8WcI-27">
          <mxGeometry width="180" height="10" relative="1" as="geometry">
            <mxPoint x="10" y="30" as="offset" />
          </mxGeometry>
        </mxCell>
        <mxCell id="FrsUDkPcYVR0_xmD8WcI-30" value="User Name:" style="strokeWidth=1;shadow=0;dashed=0;align=center;html=1;shape=mxgraph.mockup.forms.anchor;fontSize=12;fontColor=#666666;align=left;resizeWidth=1;spacingLeft=0;" vertex="1" parent="FrsUDkPcYVR0_xmD8WcI-27">
          <mxGeometry width="100" height="20" relative="1" as="geometry">
            <mxPoint x="10" y="40" as="offset" />
          </mxGeometry>
        </mxCell>
        <mxCell id="FrsUDkPcYVR0_xmD8WcI-31" value="johndoe" style="strokeWidth=1;shadow=0;dashed=0;align=center;html=1;shape=mxgraph.mockup.forms.rrect;rSize=0;strokeColor=#999999;fontColor=#666666;align=left;spacingLeft=5;resizeWidth=1;" vertex="1" parent="FrsUDkPcYVR0_xmD8WcI-27">
          <mxGeometry width="150" height="25" relative="1" as="geometry">
            <mxPoint x="10" y="60" as="offset" />
          </mxGeometry>
        </mxCell>
        <mxCell id="FrsUDkPcYVR0_xmD8WcI-32" value="Password:" style="strokeWidth=1;shadow=0;dashed=0;align=center;html=1;shape=mxgraph.mockup.forms.anchor;fontSize=12;fontColor=#666666;align=left;resizeWidth=1;spacingLeft=0;" vertex="1" parent="FrsUDkPcYVR0_xmD8WcI-27">
          <mxGeometry width="100" height="20" relative="1" as="geometry">
            <mxPoint x="10" y="95" as="offset" />
          </mxGeometry>
        </mxCell>
        <mxCell id="FrsUDkPcYVR0_xmD8WcI-33" value="********" style="strokeWidth=1;shadow=0;dashed=0;align=center;html=1;shape=mxgraph.mockup.forms.rrect;rSize=0;strokeColor=#999999;fontColor=#666666;align=left;spacingLeft=5;resizeWidth=1;" vertex="1" parent="FrsUDkPcYVR0_xmD8WcI-27">
          <mxGeometry width="150" height="25" relative="1" as="geometry">
            <mxPoint x="10" y="115" as="offset" />
          </mxGeometry>
        </mxCell>
        <mxCell id="FrsUDkPcYVR0_xmD8WcI-34" value="SIGN IN" style="strokeWidth=1;shadow=0;dashed=0;align=center;html=1;shape=mxgraph.mockup.forms.rrect;rSize=5;strokeColor=none;fontColor=#ffffff;fillColor=#66bbff;fontSize=16;fontStyle=1;" vertex="1" parent="FrsUDkPcYVR0_xmD8WcI-27">
          <mxGeometry y="1" width="80" height="30" relative="1" as="geometry">
            <mxPoint x="20" y="-150" as="offset" />
          </mxGeometry>
        </mxCell>
        <mxCell id="FrsUDkPcYVR0_xmD8WcI-35" value="Forgot Password?" style="strokeWidth=1;shadow=0;dashed=0;align=center;html=1;shape=mxgraph.mockup.forms.anchor;fontSize=12;fontColor=#9999ff;align=left;spacingLeft=0;fontStyle=4;resizeWidth=1;" vertex="1" parent="FrsUDkPcYVR0_xmD8WcI-27">
          <mxGeometry y="1" width="150" height="20" relative="1" as="geometry">
            <mxPoint x="10" y="-110" as="offset" />
          </mxGeometry>
        </mxCell>
        <mxCell id="FrsUDkPcYVR0_xmD8WcI-36" value="" style="shape=line;strokeColor=#ddeeff;strokeWidth=2;html=1;resizeWidth=1;" vertex="1" parent="FrsUDkPcYVR0_xmD8WcI-27">
          <mxGeometry y="1" width="180" height="10" relative="1" as="geometry">
            <mxPoint x="10" y="-90" as="offset" />
          </mxGeometry>
        </mxCell>
        <mxCell id="FrsUDkPcYVR0_xmD8WcI-37" value="New User" style="strokeWidth=1;shadow=0;dashed=0;align=center;html=1;shape=mxgraph.mockup.forms.anchor;fontSize=12;fontColor=#666666;align=left;spacingLeft=0;resizeWidth=1;" vertex="1" parent="FrsUDkPcYVR0_xmD8WcI-27">
          <mxGeometry y="1" width="150" height="20" relative="1" as="geometry">
            <mxPoint x="10" y="-70" as="offset" />
          </mxGeometry>
        </mxCell>
        <mxCell id="FrsUDkPcYVR0_xmD8WcI-38" value="SIGN UP" style="strokeWidth=1;shadow=0;dashed=0;align=center;html=1;shape=mxgraph.mockup.forms.rrect;rSize=5;strokeColor=none;fontColor=#ffffff;fillColor=#66bbff;fontSize=16;fontStyle=1;" vertex="1" parent="FrsUDkPcYVR0_xmD8WcI-27">
          <mxGeometry y="1" width="80" height="30" relative="1" as="geometry">
            <mxPoint x="20" y="-50" as="offset" />
          </mxGeometry>
        </mxCell>
        <mxCell id="FrsUDkPcYVR0_xmD8WcI-39" value="Username:" style="strokeWidth=1;shadow=0;dashed=0;align=center;html=1;shape=mxgraph.mockup.forms.anchor;align=right;spacingRight=2;fontColor=#666666;" vertex="1" parent="FrsUDkPcYVR0_xmD8WcI-1">
          <mxGeometry x="300" y="700" width="50" height="18" as="geometry" />
        </mxCell>
        <mxCell id="FrsUDkPcYVR0_xmD8WcI-40" value="" style="strokeWidth=1;shadow=0;dashed=0;align=center;html=1;shape=mxgraph.mockup.forms.rrect;fillColor=#ffffff;rSize=0;fontColor=#666666;align=left;spacingLeft=3;strokeColor=#999999;" vertex="1" parent="FrsUDkPcYVR0_xmD8WcI-1">
          <mxGeometry x="350" y="700" width="350" height="18" as="geometry" />
        </mxCell>
        <mxCell id="FrsUDkPcYVR0_xmD8WcI-41" value="Password:&amp;nbsp;" style="strokeWidth=1;shadow=0;dashed=0;align=center;html=1;shape=mxgraph.mockup.forms.anchor;align=right;spacingRight=2;fontColor=#666666;" vertex="1" parent="FrsUDkPcYVR0_xmD8WcI-1">
          <mxGeometry x="300" y="735" width="50" height="18" as="geometry" />
        </mxCell>
        <mxCell id="FrsUDkPcYVR0_xmD8WcI-42" value="" style="strokeWidth=1;shadow=0;dashed=0;align=center;html=1;shape=mxgraph.mockup.forms.rrect;fillColor=#ffffff;rSize=0;fontColor=#666666;align=left;spacingLeft=3;strokeColor=#999999;" vertex="1" parent="FrsUDkPcYVR0_xmD8WcI-1">
          <mxGeometry x="350" y="735" width="350" height="18" as="geometry" />
        </mxCell>
        <mxCell id="FrsUDkPcYVR0_xmD8WcI-43" value="Confirm Password:" style="strokeWidth=1;shadow=0;dashed=0;align=center;html=1;shape=mxgraph.mockup.forms.anchor;align=right;spacingRight=2;fontColor=#666666;" vertex="1" parent="FrsUDkPcYVR0_xmD8WcI-1">
          <mxGeometry x="300" y="770" width="50" height="18" as="geometry" />
        </mxCell>
        <mxCell id="FrsUDkPcYVR0_xmD8WcI-44" value="" style="strokeWidth=1;shadow=0;dashed=0;align=center;html=1;shape=mxgraph.mockup.forms.rrect;fillColor=#ffffff;rSize=0;fontColor=#666666;align=left;spacingLeft=3;strokeColor=#999999;" vertex="1" parent="FrsUDkPcYVR0_xmD8WcI-1">
          <mxGeometry x="350" y="770" width="350" height="18" as="geometry" />
        </mxCell>
        <mxCell id="FrsUDkPcYVR0_xmD8WcI-45" value="Email:" style="strokeWidth=1;shadow=0;dashed=0;align=center;html=1;shape=mxgraph.mockup.forms.anchor;align=right;spacingRight=2;fontColor=#666666;" vertex="1" parent="FrsUDkPcYVR0_xmD8WcI-1">
          <mxGeometry x="300" y="805" width="50" height="18" as="geometry" />
        </mxCell>
        <mxCell id="FrsUDkPcYVR0_xmD8WcI-46" value="" style="strokeWidth=1;shadow=0;dashed=0;align=center;html=1;shape=mxgraph.mockup.forms.rrect;fillColor=#ffffff;rSize=0;fontColor=#666666;align=left;spacingLeft=3;strokeColor=#999999;" vertex="1" parent="FrsUDkPcYVR0_xmD8WcI-1">
          <mxGeometry x="350" y="805" width="350" height="18" as="geometry" />
        </mxCell>
        <mxCell id="FrsUDkPcYVR0_xmD8WcI-47" value="Phone number:" style="strokeWidth=1;shadow=0;dashed=0;align=center;html=1;shape=mxgraph.mockup.forms.anchor;align=right;spacingRight=2;fontColor=#666666;" vertex="1" parent="FrsUDkPcYVR0_xmD8WcI-1">
          <mxGeometry x="300" y="840" width="50" height="18" as="geometry" />
        </mxCell>
        <mxCell id="FrsUDkPcYVR0_xmD8WcI-48" value="" style="strokeWidth=1;shadow=0;dashed=0;align=center;html=1;shape=mxgraph.mockup.forms.rrect;fillColor=#ffffff;rSize=0;fontColor=#666666;align=left;spacingLeft=3;strokeColor=#999999;" vertex="1" parent="FrsUDkPcYVR0_xmD8WcI-1">
          <mxGeometry x="350" y="840" width="350" height="18" as="geometry" />
        </mxCell>
        <mxCell id="FrsUDkPcYVR0_xmD8WcI-49" value="NOTE: Registration form div pops up onClick of sign up button" style="strokeWidth=1;shadow=0;dashed=0;align=center;html=1;shape=mxgraph.mockup.forms.rrect;fillColor=#ffffff;rSize=0;fontColor=#666666;align=left;spacingLeft=3;strokeColor=#999999;verticalAlign=top;whiteSpace=wrap;" vertex="1" parent="FrsUDkPcYVR0_xmD8WcI-1">
          <mxGeometry x="50" y="710" width="120" height="95" as="geometry" />
        </mxCell>
        <mxCell id="FrsUDkPcYVR0_xmD8WcI-50" value="REGISTER" style="strokeWidth=1;shadow=0;dashed=0;align=center;html=1;shape=mxgraph.mockup.forms.rrect;rSize=5;strokeColor=none;fontColor=#ffffff;fillColor=#66bbff;fontSize=16;fontStyle=1;" vertex="1" parent="FrsUDkPcYVR0_xmD8WcI-1">
          <mxGeometry x="600" y="880" width="100" height="30" as="geometry" />
        </mxCell>
      </root>
    </mxGraphModel>
  </diagram>
  <diagram id="aEXg_pXsO20aH4Ep0pPM" name="New/Deals/Pokemon/MTG">
    <mxGraphModel dx="2236" dy="1014" grid="0" gridSize="10" guides="1" tooltips="1" connect="1" arrows="1" fold="1" page="0" pageScale="1" pageWidth="850" pageHeight="1100" math="0" shadow="0">
      <root>
        <mxCell id="0" />
        <mxCell id="1" parent="0" />
        <mxCell id="BeOeXE6PUEZroIaSgrYk-1" value="" style="strokeWidth=1;shadow=0;dashed=0;align=center;html=1;shape=mxgraph.mockup.containers.browserWindow;rSize=0;strokeColor=#666666;mainText=,;recursiveResize=0;rounded=0;labelBackgroundColor=none;fontFamily=Verdana;fontSize=12" vertex="1" parent="1">
          <mxGeometry x="10" y="20" width="1050" height="1010" as="geometry" />
        </mxCell>
        <mxCell id="BeOeXE6PUEZroIaSgrYk-2" value="MintVintage&amp;nbsp;" style="strokeWidth=1;shadow=0;dashed=0;align=center;html=1;shape=mxgraph.mockup.containers.anchor;fontSize=17;fontColor=#666666;align=left;" vertex="1" parent="BeOeXE6PUEZroIaSgrYk-1">
          <mxGeometry x="60" y="12" width="110" height="26" as="geometry" />
        </mxCell>
        <mxCell id="BeOeXE6PUEZroIaSgrYk-3" value="https://www.mintvintage.com" style="strokeWidth=1;shadow=0;dashed=0;align=center;html=1;shape=mxgraph.mockup.containers.anchor;rSize=0;fontSize=17;fontColor=#666666;align=left;" vertex="1" parent="BeOeXE6PUEZroIaSgrYk-1">
          <mxGeometry x="130" y="60" width="250" height="26" as="geometry" />
        </mxCell>
        <mxCell id="BeOeXE6PUEZroIaSgrYk-4" value="MintVintage Header image" style="text;html=1;points=[];align=left;verticalAlign=top;spacingTop=-4;fontSize=30;fontFamily=Verdana" vertex="1" parent="BeOeXE6PUEZroIaSgrYk-1">
          <mxGeometry x="30" y="140" width="340" height="50" as="geometry" />
        </mxCell>
        <mxCell id="BeOeXE6PUEZroIaSgrYk-5" value="" style="verticalLabelPosition=bottom;shadow=0;dashed=0;align=center;html=1;verticalAlign=top;strokeWidth=1;shape=mxgraph.mockup.markup.line;strokeColor=#999999;rounded=0;labelBackgroundColor=none;fillColor=#ffffff;fontFamily=Verdana;fontSize=12;fontColor=#000000;" vertex="1" parent="BeOeXE6PUEZroIaSgrYk-1">
          <mxGeometry y="240" width="1050" height="20" as="geometry" />
        </mxCell>
        <mxCell id="BeOeXE6PUEZroIaSgrYk-7" value="" style="ellipse;whiteSpace=wrap;html=1;aspect=fixed;" vertex="1" parent="BeOeXE6PUEZroIaSgrYk-1">
          <mxGeometry x="950" y="140" width="80" height="80" as="geometry" />
        </mxCell>
        <mxCell id="BeOeXE6PUEZroIaSgrYk-8" value="" style="ellipse;whiteSpace=wrap;html=1;aspect=fixed;" vertex="1" parent="BeOeXE6PUEZroIaSgrYk-1">
          <mxGeometry x="860" y="140" width="80" height="80" as="geometry" />
        </mxCell>
        <mxCell id="BeOeXE6PUEZroIaSgrYk-9" value="Instagram" style="text;html=1;align=center;verticalAlign=middle;whiteSpace=wrap;rounded=0;" vertex="1" parent="BeOeXE6PUEZroIaSgrYk-1">
          <mxGeometry x="960" y="165" width="60" height="30" as="geometry" />
        </mxCell>
        <mxCell id="BeOeXE6PUEZroIaSgrYk-10" value="Facebook" style="text;html=1;align=center;verticalAlign=middle;whiteSpace=wrap;rounded=0;" vertex="1" parent="BeOeXE6PUEZroIaSgrYk-1">
          <mxGeometry x="870" y="165" width="60" height="30" as="geometry" />
        </mxCell>
        <mxCell id="BeOeXE6PUEZroIaSgrYk-11" value="Log In/Register" style="strokeWidth=1;shadow=0;dashed=0;align=center;html=1;shape=mxgraph.mockup.buttons.button;strokeColor=#666666;fontColor=#ffffff;mainText=;buttonStyle=round;fontSize=17;fontStyle=1;fillColor=#008cff;whiteSpace=wrap;" vertex="1" parent="BeOeXE6PUEZroIaSgrYk-1">
          <mxGeometry x="700" y="155" width="150" height="50" as="geometry" />
        </mxCell>
        <mxCell id="BeOeXE6PUEZroIaSgrYk-12" value="" style="verticalLabelPosition=bottom;shadow=0;dashed=0;align=center;html=1;verticalAlign=top;strokeWidth=1;shape=mxgraph.mockup.markup.line;strokeColor=#999999;" vertex="1" parent="BeOeXE6PUEZroIaSgrYk-1">
          <mxGeometry y="300" width="1050" height="20" as="geometry" />
        </mxCell>
        <mxCell id="BeOeXE6PUEZroIaSgrYk-13" value="" style="group;fontSize=14;" vertex="1" connectable="0" parent="BeOeXE6PUEZroIaSgrYk-1">
          <mxGeometry x="30" y="265" width="990" height="30" as="geometry" />
        </mxCell>
        <mxCell id="BeOeXE6PUEZroIaSgrYk-14" value="Home" style="text;html=1;align=center;verticalAlign=middle;whiteSpace=wrap;rounded=0;" vertex="1" parent="BeOeXE6PUEZroIaSgrYk-13">
          <mxGeometry width="118.8" height="30" as="geometry" />
        </mxCell>
        <mxCell id="BeOeXE6PUEZroIaSgrYk-15" value="New" style="text;html=1;align=center;verticalAlign=middle;whiteSpace=wrap;rounded=0;" vertex="1" parent="BeOeXE6PUEZroIaSgrYk-13">
          <mxGeometry x="190.07999999999998" width="118.8" height="30" as="geometry" />
        </mxCell>
        <mxCell id="BeOeXE6PUEZroIaSgrYk-16" value="Deals" style="text;html=1;align=center;verticalAlign=middle;whiteSpace=wrap;rounded=0;" vertex="1" parent="BeOeXE6PUEZroIaSgrYk-13">
          <mxGeometry x="364.32" width="118.8" height="30" as="geometry" />
        </mxCell>
        <mxCell id="BeOeXE6PUEZroIaSgrYk-17" value="Pokemon" style="text;html=1;align=center;verticalAlign=middle;whiteSpace=wrap;rounded=0;" vertex="1" parent="BeOeXE6PUEZroIaSgrYk-13">
          <mxGeometry x="538.56" width="118.8" height="30" as="geometry" />
        </mxCell>
        <mxCell id="BeOeXE6PUEZroIaSgrYk-18" value="MTG" style="text;html=1;align=center;verticalAlign=middle;whiteSpace=wrap;rounded=0;" vertex="1" parent="BeOeXE6PUEZroIaSgrYk-13">
          <mxGeometry x="712.8" width="118.8" height="30" as="geometry" />
        </mxCell>
        <mxCell id="BeOeXE6PUEZroIaSgrYk-19" value="Cart" style="text;html=1;align=center;verticalAlign=middle;whiteSpace=wrap;rounded=0;" vertex="1" parent="BeOeXE6PUEZroIaSgrYk-13">
          <mxGeometry x="871.2" width="118.8" height="30" as="geometry" />
        </mxCell>
        <mxCell id="BeOeXE6PUEZroIaSgrYk-22" value="&lt;h1 style=&quot;margin-top: 0px;&quot;&gt;Card Details&lt;span style=&quot;white-space: pre;&quot;&gt;&#x9;&lt;/span&gt;&lt;span style=&quot;white-space: pre;&quot;&gt;&#x9;&lt;/span&gt;&lt;span style=&quot;white-space: pre;&quot;&gt;&#x9;&lt;/span&gt;&lt;span style=&quot;white-space: pre;&quot;&gt;&#x9;&lt;/span&gt;&lt;span style=&quot;white-space: pre;&quot;&gt;&#x9;&lt;/span&gt;&lt;span style=&quot;white-space: pre;&quot;&gt;&#x9;&lt;/span&gt;&lt;span style=&quot;white-space: pre;&quot;&gt;&#x9;&lt;/span&gt;&amp;nbsp; &amp;nbsp; &amp;nbsp;Price&lt;/h1&gt;&lt;p&gt;Lorem ipsum dolor sit amet, consectetur adipisicing elit, sed do eiusmod tempor incididunt ut labore et dolore magna aliqua.&amp;nbsp;&lt;span style=&quot;background-color: initial;&quot;&gt;Lorem ipsum dolor sit amet, consectetur adipisicing elit, sed do eiusmod tempor incididunt ut labore et dolore magna aliqua.&lt;/span&gt;&lt;span style=&quot;background-color: initial;&quot;&gt;Lorem ipsum dolor sit amet, consectetur adipisicing elit, sed do eiusmod tempor incididunt ut labore et dolore magna aliqua.&lt;/span&gt;&lt;span style=&quot;background-color: initial;&quot;&gt;Lorem ipsum dolor sit amet, consectetur adipisicing elit, sed do eiusmod tempor incididunt ut labore et dolore magna aliqua.&lt;/span&gt;&lt;span style=&quot;background-color: initial;&quot;&gt;Lorem ipsum dolor sit amet, consectetur adipisicing elit, sed do eiusmod tempor incididunt ut labore et dolore magna aliqua.&lt;/span&gt;&lt;span style=&quot;background-color: initial;&quot;&gt;Lorem ipsum dolor sit amet, consectetur adipisicing elit, sed do eiusmod tempor incididunt ut labore et dolore magna aliqua.&lt;/span&gt;&lt;span style=&quot;background-color: initial;&quot;&gt;Lorem ipsum dolor sit amet, consectetur adipisicing elit, sed do eiusmod tempor incididunt ut labore et dolore magna aliqua.&lt;/span&gt;&lt;/p&gt;" style="text;html=1;whiteSpace=wrap;overflow=hidden;rounded=0;" vertex="1" parent="BeOeXE6PUEZroIaSgrYk-1">
          <mxGeometry x="40" y="740" width="590" height="210" as="geometry" />
        </mxCell>
        <mxCell id="KsY_5Qh2ooEUXiBQmBnF-1" value="" style="group" vertex="1" connectable="0" parent="BeOeXE6PUEZroIaSgrYk-1">
          <mxGeometry x="680" y="350" width="330" height="138" as="geometry" />
        </mxCell>
        <mxCell id="BeOeXE6PUEZroIaSgrYk-23" value="" style="rounded=1;whiteSpace=wrap;html=1;" vertex="1" parent="KsY_5Qh2ooEUXiBQmBnF-1">
          <mxGeometry width="330" height="138" as="geometry" />
        </mxCell>
        <mxCell id="BeOeXE6PUEZroIaSgrYk-24" value="Search" style="strokeWidth=1;shadow=0;dashed=0;align=center;html=1;shape=mxgraph.mockup.forms.searchBox;strokeColor=#999999;mainText=;strokeColor2=#008cff;fontColor=#666666;fontSize=17;align=left;spacingLeft=3;whiteSpace=wrap;" vertex="1" parent="KsY_5Qh2ooEUXiBQmBnF-1">
          <mxGeometry x="40" y="78" width="260" height="30" as="geometry" />
        </mxCell>
        <mxCell id="BeOeXE6PUEZroIaSgrYk-25" value="&lt;font style=&quot;font-size: 18px;&quot;&gt;Looking for something specific?&lt;/font&gt;" style="text;html=1;align=center;verticalAlign=middle;whiteSpace=wrap;rounded=0;" vertex="1" parent="KsY_5Qh2ooEUXiBQmBnF-1">
          <mxGeometry x="23" y="30" width="290" height="30" as="geometry" />
        </mxCell>
        <mxCell id="KsY_5Qh2ooEUXiBQmBnF-2" value="" style="verticalLabelPosition=bottom;shadow=0;dashed=0;align=center;html=1;verticalAlign=top;strokeWidth=1;shape=mxgraph.mockup.graphics.simpleIcon;strokeColor=#999999;" vertex="1" parent="BeOeXE6PUEZroIaSgrYk-1">
          <mxGeometry x="40" y="355" width="240" height="350" as="geometry" />
        </mxCell>
        <mxCell id="KsY_5Qh2ooEUXiBQmBnF-3" value="" style="verticalLabelPosition=bottom;shadow=0;dashed=0;align=center;html=1;verticalAlign=top;strokeWidth=1;shape=mxgraph.mockup.graphics.simpleIcon;strokeColor=#999999;" vertex="1" parent="BeOeXE6PUEZroIaSgrYk-1">
          <mxGeometry x="372" y="355" width="240" height="350" as="geometry" />
        </mxCell>
        <mxCell id="KsY_5Qh2ooEUXiBQmBnF-4" value="Add to Cart" style="strokeWidth=1;shadow=0;dashed=0;align=center;html=1;shape=mxgraph.mockup.buttons.button;strokeColor=#666666;fontColor=#ffffff;mainText=;buttonStyle=round;fontSize=17;fontStyle=1;fillColor=#008cff;whiteSpace=wrap;" vertex="1" parent="BeOeXE6PUEZroIaSgrYk-1">
          <mxGeometry x="480" y="930" width="150" height="50" as="geometry" />
        </mxCell>
        <mxCell id="KsY_5Qh2ooEUXiBQmBnF-5" value="View Cart" style="strokeWidth=1;shadow=0;dashed=0;align=center;html=1;shape=mxgraph.mockup.buttons.button;strokeColor=#666666;fontColor=#ffffff;mainText=;buttonStyle=round;fontSize=17;fontStyle=1;fillColor=#008cff;whiteSpace=wrap;" vertex="1" parent="BeOeXE6PUEZroIaSgrYk-1">
          <mxGeometry x="680" y="520" width="330" height="50" as="geometry" />
        </mxCell>
        <mxCell id="KsY_5Qh2ooEUXiBQmBnF-7" value="Checkout" style="strokeWidth=1;shadow=0;dashed=0;align=center;html=1;shape=mxgraph.mockup.buttons.button;strokeColor=#666666;fontColor=#ffffff;mainText=;buttonStyle=round;fontSize=17;fontStyle=1;fillColor=#008cff;whiteSpace=wrap;" vertex="1" parent="BeOeXE6PUEZroIaSgrYk-1">
          <mxGeometry x="680" y="580" width="330" height="50" as="geometry" />
        </mxCell>
        <mxCell id="KsY_5Qh2ooEUXiBQmBnF-8" value="" style="verticalLabelPosition=bottom;shadow=0;dashed=0;align=center;html=1;verticalAlign=top;strokeWidth=1;shape=mxgraph.mockup.graphics.simpleIcon;strokeColor=#999999;fillColor=#ffffff;" vertex="1" parent="BeOeXE6PUEZroIaSgrYk-1">
          <mxGeometry x="750" y="745" width="50" height="50" as="geometry" />
        </mxCell>
        <mxCell id="KsY_5Qh2ooEUXiBQmBnF-9" value="" style="verticalLabelPosition=bottom;shadow=0;dashed=0;align=center;html=1;verticalAlign=top;strokeWidth=1;shape=mxgraph.mockup.graphics.simpleIcon;strokeColor=#999999;fillColor=#ffffff;" vertex="1" parent="BeOeXE6PUEZroIaSgrYk-1">
          <mxGeometry x="825" y="745" width="50" height="50" as="geometry" />
        </mxCell>
        <mxCell id="KsY_5Qh2ooEUXiBQmBnF-10" value="" style="verticalLabelPosition=bottom;shadow=0;dashed=0;align=center;html=1;verticalAlign=top;strokeWidth=1;shape=mxgraph.mockup.graphics.simpleIcon;strokeColor=#999999;fillColor=#ffffff;" vertex="1" parent="BeOeXE6PUEZroIaSgrYk-1">
          <mxGeometry x="900" y="745" width="50" height="50" as="geometry" />
        </mxCell>
        <mxCell id="KsY_5Qh2ooEUXiBQmBnF-11" value="" style="verticalLabelPosition=bottom;shadow=0;dashed=0;align=center;html=1;verticalAlign=top;strokeWidth=1;shape=mxgraph.mockup.graphics.simpleIcon;strokeColor=#999999;fillColor=#ffffff;" vertex="1" parent="BeOeXE6PUEZroIaSgrYk-1">
          <mxGeometry x="750" y="820" width="50" height="50" as="geometry" />
        </mxCell>
        <mxCell id="KsY_5Qh2ooEUXiBQmBnF-12" value="" style="verticalLabelPosition=bottom;shadow=0;dashed=0;align=center;html=1;verticalAlign=top;strokeWidth=1;shape=mxgraph.mockup.graphics.simpleIcon;strokeColor=#999999;fillColor=#ffffff;" vertex="1" parent="BeOeXE6PUEZroIaSgrYk-1">
          <mxGeometry x="825" y="820" width="50" height="50" as="geometry" />
        </mxCell>
        <mxCell id="KsY_5Qh2ooEUXiBQmBnF-13" value="" style="verticalLabelPosition=bottom;shadow=0;dashed=0;align=center;html=1;verticalAlign=top;strokeWidth=1;shape=mxgraph.mockup.graphics.simpleIcon;strokeColor=#999999;fillColor=#ffffff;" vertex="1" parent="BeOeXE6PUEZroIaSgrYk-1">
          <mxGeometry x="900" y="820" width="50" height="50" as="geometry" />
        </mxCell>
        <mxCell id="KsY_5Qh2ooEUXiBQmBnF-14" value="" style="verticalLabelPosition=bottom;shadow=0;dashed=0;align=center;html=1;verticalAlign=top;strokeWidth=1;shape=mxgraph.mockup.graphics.simpleIcon;strokeColor=#999999;fillColor=#ffffff;" vertex="1" parent="BeOeXE6PUEZroIaSgrYk-1">
          <mxGeometry x="750" y="895" width="50" height="50" as="geometry" />
        </mxCell>
        <mxCell id="KsY_5Qh2ooEUXiBQmBnF-15" value="" style="verticalLabelPosition=bottom;shadow=0;dashed=0;align=center;html=1;verticalAlign=top;strokeWidth=1;shape=mxgraph.mockup.graphics.simpleIcon;strokeColor=#999999;fillColor=#ffffff;" vertex="1" parent="BeOeXE6PUEZroIaSgrYk-1">
          <mxGeometry x="825" y="895" width="50" height="50" as="geometry" />
        </mxCell>
        <mxCell id="KsY_5Qh2ooEUXiBQmBnF-16" value="" style="verticalLabelPosition=bottom;shadow=0;dashed=0;align=center;html=1;verticalAlign=top;strokeWidth=1;shape=mxgraph.mockup.graphics.simpleIcon;strokeColor=#999999;fillColor=#ffffff;" vertex="1" parent="BeOeXE6PUEZroIaSgrYk-1">
          <mxGeometry x="900" y="895" width="50" height="50" as="geometry" />
        </mxCell>
        <mxCell id="KsY_5Qh2ooEUXiBQmBnF-17" value="&lt;font style=&quot;font-size: 16px;&quot;&gt;Similar Items&lt;/font&gt;" style="text;html=1;align=center;verticalAlign=middle;whiteSpace=wrap;rounded=0;" vertex="1" parent="BeOeXE6PUEZroIaSgrYk-1">
          <mxGeometry x="795" y="675" width="100" height="30" as="geometry" />
        </mxCell>
        <mxCell id="KsY_5Qh2ooEUXiBQmBnF-18" value="Front" style="text;html=1;align=center;verticalAlign=middle;whiteSpace=wrap;rounded=0;" vertex="1" parent="BeOeXE6PUEZroIaSgrYk-1">
          <mxGeometry x="130" y="400" width="60" height="30" as="geometry" />
        </mxCell>
        <mxCell id="KsY_5Qh2ooEUXiBQmBnF-19" value="Back" style="text;html=1;align=center;verticalAlign=middle;whiteSpace=wrap;rounded=0;" vertex="1" parent="BeOeXE6PUEZroIaSgrYk-1">
          <mxGeometry x="462" y="399" width="60" height="30" as="geometry" />
        </mxCell>
      </root>
    </mxGraphModel>
  </diagram>
  <diagram id="e61F1lCmWdUik0vzcVC_" name="Cart">
    <mxGraphModel dx="2329" dy="1056" grid="0" gridSize="10" guides="1" tooltips="1" connect="1" arrows="1" fold="1" page="0" pageScale="1" pageWidth="850" pageHeight="1100" math="0" shadow="0">
      <root>
        <mxCell id="0" />
        <mxCell id="1" parent="0" />
        <mxCell id="5yI_1FNZlecLsglVBPnQ-1" value="" style="strokeWidth=1;shadow=0;dashed=0;align=center;html=1;shape=mxgraph.mockup.containers.browserWindow;rSize=0;strokeColor=#666666;mainText=,;recursiveResize=0;rounded=0;labelBackgroundColor=none;fontFamily=Verdana;fontSize=12" vertex="1" parent="1">
          <mxGeometry x="10" y="20" width="1050" height="1060" as="geometry" />
        </mxCell>
        <mxCell id="5yI_1FNZlecLsglVBPnQ-2" value="MintVintage&amp;nbsp;" style="strokeWidth=1;shadow=0;dashed=0;align=center;html=1;shape=mxgraph.mockup.containers.anchor;fontSize=17;fontColor=#666666;align=left;" vertex="1" parent="5yI_1FNZlecLsglVBPnQ-1">
          <mxGeometry x="60" y="12" width="110" height="26" as="geometry" />
        </mxCell>
        <mxCell id="5yI_1FNZlecLsglVBPnQ-3" value="https://www.mintvintage.com" style="strokeWidth=1;shadow=0;dashed=0;align=center;html=1;shape=mxgraph.mockup.containers.anchor;rSize=0;fontSize=17;fontColor=#666666;align=left;" vertex="1" parent="5yI_1FNZlecLsglVBPnQ-1">
          <mxGeometry x="130" y="60" width="250" height="26" as="geometry" />
        </mxCell>
        <mxCell id="5yI_1FNZlecLsglVBPnQ-4" value="MintVintage Header image" style="text;html=1;points=[];align=left;verticalAlign=top;spacingTop=-4;fontSize=30;fontFamily=Verdana" vertex="1" parent="5yI_1FNZlecLsglVBPnQ-1">
          <mxGeometry x="30" y="140" width="340" height="50" as="geometry" />
        </mxCell>
        <mxCell id="5yI_1FNZlecLsglVBPnQ-5" value="" style="verticalLabelPosition=bottom;shadow=0;dashed=0;align=center;html=1;verticalAlign=top;strokeWidth=1;shape=mxgraph.mockup.markup.line;strokeColor=#999999;rounded=0;labelBackgroundColor=none;fillColor=#ffffff;fontFamily=Verdana;fontSize=12;fontColor=#000000;" vertex="1" parent="5yI_1FNZlecLsglVBPnQ-1">
          <mxGeometry y="240" width="1050" height="20" as="geometry" />
        </mxCell>
        <mxCell id="5yI_1FNZlecLsglVBPnQ-6" value="" style="ellipse;whiteSpace=wrap;html=1;aspect=fixed;" vertex="1" parent="5yI_1FNZlecLsglVBPnQ-1">
          <mxGeometry x="950" y="140" width="80" height="80" as="geometry" />
        </mxCell>
        <mxCell id="5yI_1FNZlecLsglVBPnQ-7" value="" style="ellipse;whiteSpace=wrap;html=1;aspect=fixed;" vertex="1" parent="5yI_1FNZlecLsglVBPnQ-1">
          <mxGeometry x="860" y="140" width="80" height="80" as="geometry" />
        </mxCell>
        <mxCell id="5yI_1FNZlecLsglVBPnQ-8" value="Instagram" style="text;html=1;align=center;verticalAlign=middle;whiteSpace=wrap;rounded=0;" vertex="1" parent="5yI_1FNZlecLsglVBPnQ-1">
          <mxGeometry x="960" y="165" width="60" height="30" as="geometry" />
        </mxCell>
        <mxCell id="5yI_1FNZlecLsglVBPnQ-9" value="Facebook" style="text;html=1;align=center;verticalAlign=middle;whiteSpace=wrap;rounded=0;" vertex="1" parent="5yI_1FNZlecLsglVBPnQ-1">
          <mxGeometry x="870" y="165" width="60" height="30" as="geometry" />
        </mxCell>
        <mxCell id="5yI_1FNZlecLsglVBPnQ-10" value="Log In/Register" style="strokeWidth=1;shadow=0;dashed=0;align=center;html=1;shape=mxgraph.mockup.buttons.button;strokeColor=#666666;fontColor=#ffffff;mainText=;buttonStyle=round;fontSize=17;fontStyle=1;fillColor=#008cff;whiteSpace=wrap;" vertex="1" parent="5yI_1FNZlecLsglVBPnQ-1">
          <mxGeometry x="700" y="155" width="150" height="50" as="geometry" />
        </mxCell>
        <mxCell id="5yI_1FNZlecLsglVBPnQ-11" value="" style="verticalLabelPosition=bottom;shadow=0;dashed=0;align=center;html=1;verticalAlign=top;strokeWidth=1;shape=mxgraph.mockup.markup.line;strokeColor=#999999;" vertex="1" parent="5yI_1FNZlecLsglVBPnQ-1">
          <mxGeometry y="300" width="1050" height="20" as="geometry" />
        </mxCell>
        <mxCell id="5yI_1FNZlecLsglVBPnQ-12" value="" style="group;fontSize=14;" vertex="1" connectable="0" parent="5yI_1FNZlecLsglVBPnQ-1">
          <mxGeometry x="30" y="265" width="990" height="30" as="geometry" />
        </mxCell>
        <mxCell id="5yI_1FNZlecLsglVBPnQ-13" value="Home" style="text;html=1;align=center;verticalAlign=middle;whiteSpace=wrap;rounded=0;" vertex="1" parent="5yI_1FNZlecLsglVBPnQ-12">
          <mxGeometry width="118.8" height="30" as="geometry" />
        </mxCell>
        <mxCell id="5yI_1FNZlecLsglVBPnQ-14" value="New" style="text;html=1;align=center;verticalAlign=middle;whiteSpace=wrap;rounded=0;" vertex="1" parent="5yI_1FNZlecLsglVBPnQ-12">
          <mxGeometry x="190.07999999999998" width="118.8" height="30" as="geometry" />
        </mxCell>
        <mxCell id="5yI_1FNZlecLsglVBPnQ-15" value="Deals" style="text;html=1;align=center;verticalAlign=middle;whiteSpace=wrap;rounded=0;" vertex="1" parent="5yI_1FNZlecLsglVBPnQ-12">
          <mxGeometry x="364.32" width="118.8" height="30" as="geometry" />
        </mxCell>
        <mxCell id="5yI_1FNZlecLsglVBPnQ-16" value="Pokemon" style="text;html=1;align=center;verticalAlign=middle;whiteSpace=wrap;rounded=0;" vertex="1" parent="5yI_1FNZlecLsglVBPnQ-12">
          <mxGeometry x="538.56" width="118.8" height="30" as="geometry" />
        </mxCell>
        <mxCell id="5yI_1FNZlecLsglVBPnQ-17" value="MTG" style="text;html=1;align=center;verticalAlign=middle;whiteSpace=wrap;rounded=0;" vertex="1" parent="5yI_1FNZlecLsglVBPnQ-12">
          <mxGeometry x="712.8" width="118.8" height="30" as="geometry" />
        </mxCell>
        <mxCell id="5yI_1FNZlecLsglVBPnQ-18" value="Cart" style="text;html=1;align=center;verticalAlign=middle;whiteSpace=wrap;rounded=0;" vertex="1" parent="5yI_1FNZlecLsglVBPnQ-12">
          <mxGeometry x="871.2" width="118.8" height="30" as="geometry" />
        </mxCell>
        <mxCell id="5yI_1FNZlecLsglVBPnQ-20" value="" style="group" vertex="1" connectable="0" parent="5yI_1FNZlecLsglVBPnQ-1">
          <mxGeometry x="680" y="350" width="330" height="138" as="geometry" />
        </mxCell>
        <mxCell id="5yI_1FNZlecLsglVBPnQ-21" value="" style="rounded=1;whiteSpace=wrap;html=1;" vertex="1" parent="5yI_1FNZlecLsglVBPnQ-20">
          <mxGeometry width="330" height="138" as="geometry" />
        </mxCell>
        <mxCell id="5yI_1FNZlecLsglVBPnQ-23" value="&lt;font style=&quot;font-size: 18px;&quot;&gt;Subtotal: $XX.XXX&lt;/font&gt;" style="text;html=1;align=center;verticalAlign=middle;whiteSpace=wrap;rounded=0;" vertex="1" parent="5yI_1FNZlecLsglVBPnQ-20">
          <mxGeometry x="23" y="30" width="290" height="30" as="geometry" />
        </mxCell>
        <mxCell id="5yI_1FNZlecLsglVBPnQ-27" value="Keep Shopping" style="strokeWidth=1;shadow=0;dashed=0;align=center;html=1;shape=mxgraph.mockup.buttons.button;strokeColor=#666666;fontColor=#ffffff;mainText=;buttonStyle=round;fontSize=17;fontStyle=1;fillColor=#008cff;whiteSpace=wrap;" vertex="1" parent="5yI_1FNZlecLsglVBPnQ-1">
          <mxGeometry x="680" y="520" width="330" height="50" as="geometry" />
        </mxCell>
        <mxCell id="5yI_1FNZlecLsglVBPnQ-28" value="Checkout" style="strokeWidth=1;shadow=0;dashed=0;align=center;html=1;shape=mxgraph.mockup.buttons.button;strokeColor=#666666;fontColor=#ffffff;mainText=;buttonStyle=round;fontSize=17;fontStyle=1;fillColor=#008cff;whiteSpace=wrap;" vertex="1" parent="5yI_1FNZlecLsglVBPnQ-1">
          <mxGeometry x="680" y="580" width="330" height="50" as="geometry" />
        </mxCell>
        <mxCell id="5yI_1FNZlecLsglVBPnQ-29" value="" style="verticalLabelPosition=bottom;shadow=0;dashed=0;align=center;html=1;verticalAlign=top;strokeWidth=1;shape=mxgraph.mockup.graphics.simpleIcon;strokeColor=#999999;fillColor=#ffffff;" vertex="1" parent="5yI_1FNZlecLsglVBPnQ-1">
          <mxGeometry x="750" y="745" width="50" height="50" as="geometry" />
        </mxCell>
        <mxCell id="5yI_1FNZlecLsglVBPnQ-30" value="" style="verticalLabelPosition=bottom;shadow=0;dashed=0;align=center;html=1;verticalAlign=top;strokeWidth=1;shape=mxgraph.mockup.graphics.simpleIcon;strokeColor=#999999;fillColor=#ffffff;" vertex="1" parent="5yI_1FNZlecLsglVBPnQ-1">
          <mxGeometry x="825" y="745" width="50" height="50" as="geometry" />
        </mxCell>
        <mxCell id="5yI_1FNZlecLsglVBPnQ-31" value="" style="verticalLabelPosition=bottom;shadow=0;dashed=0;align=center;html=1;verticalAlign=top;strokeWidth=1;shape=mxgraph.mockup.graphics.simpleIcon;strokeColor=#999999;fillColor=#ffffff;" vertex="1" parent="5yI_1FNZlecLsglVBPnQ-1">
          <mxGeometry x="900" y="745" width="50" height="50" as="geometry" />
        </mxCell>
        <mxCell id="5yI_1FNZlecLsglVBPnQ-32" value="" style="verticalLabelPosition=bottom;shadow=0;dashed=0;align=center;html=1;verticalAlign=top;strokeWidth=1;shape=mxgraph.mockup.graphics.simpleIcon;strokeColor=#999999;fillColor=#ffffff;" vertex="1" parent="5yI_1FNZlecLsglVBPnQ-1">
          <mxGeometry x="750" y="820" width="50" height="50" as="geometry" />
        </mxCell>
        <mxCell id="5yI_1FNZlecLsglVBPnQ-33" value="" style="verticalLabelPosition=bottom;shadow=0;dashed=0;align=center;html=1;verticalAlign=top;strokeWidth=1;shape=mxgraph.mockup.graphics.simpleIcon;strokeColor=#999999;fillColor=#ffffff;" vertex="1" parent="5yI_1FNZlecLsglVBPnQ-1">
          <mxGeometry x="825" y="820" width="50" height="50" as="geometry" />
        </mxCell>
        <mxCell id="5yI_1FNZlecLsglVBPnQ-34" value="" style="verticalLabelPosition=bottom;shadow=0;dashed=0;align=center;html=1;verticalAlign=top;strokeWidth=1;shape=mxgraph.mockup.graphics.simpleIcon;strokeColor=#999999;fillColor=#ffffff;" vertex="1" parent="5yI_1FNZlecLsglVBPnQ-1">
          <mxGeometry x="900" y="820" width="50" height="50" as="geometry" />
        </mxCell>
        <mxCell id="5yI_1FNZlecLsglVBPnQ-35" value="" style="verticalLabelPosition=bottom;shadow=0;dashed=0;align=center;html=1;verticalAlign=top;strokeWidth=1;shape=mxgraph.mockup.graphics.simpleIcon;strokeColor=#999999;fillColor=#ffffff;" vertex="1" parent="5yI_1FNZlecLsglVBPnQ-1">
          <mxGeometry x="750" y="895" width="50" height="50" as="geometry" />
        </mxCell>
        <mxCell id="5yI_1FNZlecLsglVBPnQ-36" value="" style="verticalLabelPosition=bottom;shadow=0;dashed=0;align=center;html=1;verticalAlign=top;strokeWidth=1;shape=mxgraph.mockup.graphics.simpleIcon;strokeColor=#999999;fillColor=#ffffff;" vertex="1" parent="5yI_1FNZlecLsglVBPnQ-1">
          <mxGeometry x="825" y="895" width="50" height="50" as="geometry" />
        </mxCell>
        <mxCell id="5yI_1FNZlecLsglVBPnQ-37" value="" style="verticalLabelPosition=bottom;shadow=0;dashed=0;align=center;html=1;verticalAlign=top;strokeWidth=1;shape=mxgraph.mockup.graphics.simpleIcon;strokeColor=#999999;fillColor=#ffffff;" vertex="1" parent="5yI_1FNZlecLsglVBPnQ-1">
          <mxGeometry x="900" y="895" width="50" height="50" as="geometry" />
        </mxCell>
        <mxCell id="5yI_1FNZlecLsglVBPnQ-38" value="&lt;font style=&quot;font-size: 16px;&quot;&gt;Similar Items&lt;/font&gt;" style="text;html=1;align=center;verticalAlign=middle;whiteSpace=wrap;rounded=0;" vertex="1" parent="5yI_1FNZlecLsglVBPnQ-1">
          <mxGeometry x="795" y="675" width="100" height="30" as="geometry" />
        </mxCell>
        <mxCell id="5yI_1FNZlecLsglVBPnQ-43" value="" style="group" vertex="1" connectable="0" parent="5yI_1FNZlecLsglVBPnQ-1">
          <mxGeometry x="40" y="833" width="570" height="165" as="geometry" />
        </mxCell>
        <mxCell id="5yI_1FNZlecLsglVBPnQ-19" value="&lt;h1 style=&quot;margin-top: 0px;&quot;&gt;Card Details&lt;span style=&quot;white-space: pre;&quot;&gt;&#x9;&lt;span style=&quot;white-space: pre;&quot;&gt;&#x9;&lt;/span&gt;&lt;span style=&quot;white-space: pre;&quot;&gt;&#x9;&lt;/span&gt;&lt;span style=&quot;white-space: pre;&quot;&gt;&#x9;&lt;/span&gt;      Price&lt;/span&gt;&lt;/h1&gt;&lt;p&gt;Lorem ipsum dolor sit amet, consectetur adipisicing elit, sed do eiusmod tempor incididunt ut labore et dolore magna aliqua.&amp;nbsp;&lt;span style=&quot;background-color: initial;&quot;&gt;Lorem ipsum dolor sit amet, consectetur adipisicing elit, sed do eiusmod tempor incididunt ut labore et dolore magna aliqua.&lt;/span&gt;&lt;span style=&quot;background-color: initial;&quot;&gt;Lorem ipsum dolor sit amet, consectetur adipisicing elit, sed do eiusmod tempor incididunt ut labore et dolore magna aliqua.&lt;/span&gt;&lt;/p&gt;" style="text;html=1;whiteSpace=wrap;overflow=hidden;rounded=0;" vertex="1" parent="5yI_1FNZlecLsglVBPnQ-43">
          <mxGeometry x="135" y="11.5" width="435" height="142.5" as="geometry" />
        </mxCell>
        <mxCell id="5yI_1FNZlecLsglVBPnQ-42" value="" style="group" vertex="1" connectable="0" parent="5yI_1FNZlecLsglVBPnQ-43">
          <mxGeometry width="120" height="165" as="geometry" />
        </mxCell>
        <mxCell id="5yI_1FNZlecLsglVBPnQ-24" value="" style="verticalLabelPosition=bottom;shadow=0;dashed=0;align=center;html=1;verticalAlign=top;strokeWidth=1;shape=mxgraph.mockup.graphics.simpleIcon;strokeColor=#999999;" vertex="1" parent="5yI_1FNZlecLsglVBPnQ-42">
          <mxGeometry width="120" height="165" as="geometry" />
        </mxCell>
        <mxCell id="5yI_1FNZlecLsglVBPnQ-39" value="Front" style="text;html=1;align=center;verticalAlign=middle;whiteSpace=wrap;rounded=0;" vertex="1" parent="5yI_1FNZlecLsglVBPnQ-42">
          <mxGeometry x="45" y="21.214285714285715" width="30" height="14.142857142857142" as="geometry" />
        </mxCell>
        <mxCell id="5yI_1FNZlecLsglVBPnQ-44" value="" style="group" vertex="1" connectable="0" parent="5yI_1FNZlecLsglVBPnQ-1">
          <mxGeometry x="40" y="595" width="570" height="165" as="geometry" />
        </mxCell>
        <mxCell id="5yI_1FNZlecLsglVBPnQ-45" value="&lt;h1 style=&quot;margin-top: 0px;&quot;&gt;Card Details&lt;span style=&quot;white-space: pre;&quot;&gt;&#x9;&lt;span style=&quot;white-space: pre;&quot;&gt;&#x9;&lt;/span&gt;&lt;span style=&quot;white-space: pre;&quot;&gt;&#x9;&lt;/span&gt;&lt;span style=&quot;white-space: pre;&quot;&gt;&#x9;&lt;/span&gt;      Price&lt;/span&gt;&lt;/h1&gt;&lt;p&gt;Lorem ipsum dolor sit amet, consectetur adipisicing elit, sed do eiusmod tempor incididunt ut labore et dolore magna aliqua.&amp;nbsp;&lt;span style=&quot;background-color: initial;&quot;&gt;Lorem ipsum dolor sit amet, consectetur adipisicing elit, sed do eiusmod tempor incididunt ut labore et dolore magna aliqua.&lt;/span&gt;&lt;span style=&quot;background-color: initial;&quot;&gt;Lorem ipsum dolor sit amet, consectetur adipisicing elit, sed do eiusmod tempor incididunt ut labore et dolore magna aliqua.&lt;/span&gt;&lt;/p&gt;" style="text;html=1;whiteSpace=wrap;overflow=hidden;rounded=0;" vertex="1" parent="5yI_1FNZlecLsglVBPnQ-44">
          <mxGeometry x="135" y="11.5" width="435" height="142.5" as="geometry" />
        </mxCell>
        <mxCell id="5yI_1FNZlecLsglVBPnQ-46" value="" style="group" vertex="1" connectable="0" parent="5yI_1FNZlecLsglVBPnQ-44">
          <mxGeometry width="120" height="165" as="geometry" />
        </mxCell>
        <mxCell id="5yI_1FNZlecLsglVBPnQ-47" value="" style="verticalLabelPosition=bottom;shadow=0;dashed=0;align=center;html=1;verticalAlign=top;strokeWidth=1;shape=mxgraph.mockup.graphics.simpleIcon;strokeColor=#999999;" vertex="1" parent="5yI_1FNZlecLsglVBPnQ-46">
          <mxGeometry width="120" height="165" as="geometry" />
        </mxCell>
        <mxCell id="5yI_1FNZlecLsglVBPnQ-48" value="Front" style="text;html=1;align=center;verticalAlign=middle;whiteSpace=wrap;rounded=0;" vertex="1" parent="5yI_1FNZlecLsglVBPnQ-46">
          <mxGeometry x="45" y="21.214285714285715" width="30" height="14.142857142857142" as="geometry" />
        </mxCell>
        <mxCell id="5yI_1FNZlecLsglVBPnQ-49" value="" style="group" vertex="1" connectable="0" parent="5yI_1FNZlecLsglVBPnQ-1">
          <mxGeometry x="40" y="365" width="570" height="165" as="geometry" />
        </mxCell>
        <mxCell id="5yI_1FNZlecLsglVBPnQ-50" value="&lt;h1 style=&quot;margin-top: 0px;&quot;&gt;Card Details&lt;span style=&quot;white-space: pre;&quot;&gt;&#x9;&lt;span style=&quot;white-space: pre;&quot;&gt;&#x9;&lt;/span&gt;&lt;span style=&quot;white-space: pre;&quot;&gt;&#x9;&lt;/span&gt;&lt;span style=&quot;white-space: pre;&quot;&gt;&#x9;&lt;/span&gt;      Price&lt;/span&gt;&lt;/h1&gt;&lt;p&gt;Lorem ipsum dolor sit amet, consectetur adipisicing elit, sed do eiusmod tempor incididunt ut labore et dolore magna aliqua.&amp;nbsp;&lt;span style=&quot;background-color: initial;&quot;&gt;Lorem ipsum dolor sit amet, consectetur adipisicing elit, sed do eiusmod tempor incididunt ut labore et dolore magna aliqua.&lt;/span&gt;&lt;span style=&quot;background-color: initial;&quot;&gt;Lorem ipsum dolor sit amet, consectetur adipisicing elit, sed do eiusmod tempor incididunt ut labore et dolore magna aliqua.&lt;/span&gt;&lt;/p&gt;" style="text;html=1;whiteSpace=wrap;overflow=hidden;rounded=0;" vertex="1" parent="5yI_1FNZlecLsglVBPnQ-49">
          <mxGeometry x="135" y="11.5" width="435" height="142.5" as="geometry" />
        </mxCell>
        <mxCell id="5yI_1FNZlecLsglVBPnQ-51" value="" style="group" vertex="1" connectable="0" parent="5yI_1FNZlecLsglVBPnQ-49">
          <mxGeometry width="120" height="165" as="geometry" />
        </mxCell>
        <mxCell id="5yI_1FNZlecLsglVBPnQ-52" value="" style="verticalLabelPosition=bottom;shadow=0;dashed=0;align=center;html=1;verticalAlign=top;strokeWidth=1;shape=mxgraph.mockup.graphics.simpleIcon;strokeColor=#999999;" vertex="1" parent="5yI_1FNZlecLsglVBPnQ-51">
          <mxGeometry width="120" height="165" as="geometry" />
        </mxCell>
        <mxCell id="5yI_1FNZlecLsglVBPnQ-53" value="Front" style="text;html=1;align=center;verticalAlign=middle;whiteSpace=wrap;rounded=0;" vertex="1" parent="5yI_1FNZlecLsglVBPnQ-51">
          <mxGeometry x="45" y="21.214285714285715" width="30" height="14.142857142857142" as="geometry" />
        </mxCell>
        <mxCell id="5yI_1FNZlecLsglVBPnQ-54" value="&lt;font style=&quot;font-size: 18px;&quot;&gt;Shipping: $XX.XXX&lt;/font&gt;" style="text;html=1;align=center;verticalAlign=middle;whiteSpace=wrap;rounded=0;" vertex="1" parent="1">
          <mxGeometry x="713" y="427" width="290" height="30" as="geometry" />
        </mxCell>
        <mxCell id="5yI_1FNZlecLsglVBPnQ-55" value="&lt;font style=&quot;font-size: 18px;&quot;&gt;Grand Total: $XX.XXX&lt;/font&gt;" style="text;html=1;align=center;verticalAlign=middle;whiteSpace=wrap;rounded=0;" vertex="1" parent="1">
          <mxGeometry x="713" y="457" width="290" height="30" as="geometry" />
        </mxCell>
      </root>
    </mxGraphModel>
  </diagram>
  <diagram id="JZbLyHwMW8K36UHHX5Un" name="Checkout">
    <mxGraphModel dx="2636" dy="1014" grid="0" gridSize="10" guides="1" tooltips="1" connect="1" arrows="1" fold="1" page="0" pageScale="1" pageWidth="850" pageHeight="1100" math="0" shadow="0">
      <root>
        <mxCell id="0" />
        <mxCell id="1" parent="0" />
        <mxCell id="SwH7dukcDxPWIbXSBxPu-1" value="" style="strokeWidth=1;shadow=0;dashed=0;align=center;html=1;shape=mxgraph.mockup.containers.browserWindow;rSize=0;strokeColor=#666666;mainText=,;recursiveResize=0;rounded=0;labelBackgroundColor=none;fontFamily=Verdana;fontSize=12" vertex="1" parent="1">
          <mxGeometry x="-1" y="20" width="1050" height="940" as="geometry" />
        </mxCell>
        <mxCell id="SwH7dukcDxPWIbXSBxPu-2" value="MintVintage&amp;nbsp;" style="strokeWidth=1;shadow=0;dashed=0;align=center;html=1;shape=mxgraph.mockup.containers.anchor;fontSize=17;fontColor=#666666;align=left;" vertex="1" parent="SwH7dukcDxPWIbXSBxPu-1">
          <mxGeometry x="60" y="12" width="110" height="26" as="geometry" />
        </mxCell>
        <mxCell id="SwH7dukcDxPWIbXSBxPu-3" value="https://www.mintvintage.com" style="strokeWidth=1;shadow=0;dashed=0;align=center;html=1;shape=mxgraph.mockup.containers.anchor;rSize=0;fontSize=17;fontColor=#666666;align=left;" vertex="1" parent="SwH7dukcDxPWIbXSBxPu-1">
          <mxGeometry x="130" y="60" width="250" height="26" as="geometry" />
        </mxCell>
        <mxCell id="SwH7dukcDxPWIbXSBxPu-4" value="MintVintage Header image" style="text;html=1;points=[];align=left;verticalAlign=top;spacingTop=-4;fontSize=30;fontFamily=Verdana" vertex="1" parent="SwH7dukcDxPWIbXSBxPu-1">
          <mxGeometry x="30" y="140" width="340" height="50" as="geometry" />
        </mxCell>
        <mxCell id="SwH7dukcDxPWIbXSBxPu-5" value="" style="verticalLabelPosition=bottom;shadow=0;dashed=0;align=center;html=1;verticalAlign=top;strokeWidth=1;shape=mxgraph.mockup.markup.line;strokeColor=#999999;rounded=0;labelBackgroundColor=none;fillColor=#ffffff;fontFamily=Verdana;fontSize=12;fontColor=#000000;" vertex="1" parent="SwH7dukcDxPWIbXSBxPu-1">
          <mxGeometry y="240" width="1050" height="20" as="geometry" />
        </mxCell>
        <mxCell id="SwH7dukcDxPWIbXSBxPu-7" value="" style="ellipse;whiteSpace=wrap;html=1;aspect=fixed;" vertex="1" parent="SwH7dukcDxPWIbXSBxPu-1">
          <mxGeometry x="950" y="140" width="80" height="80" as="geometry" />
        </mxCell>
        <mxCell id="SwH7dukcDxPWIbXSBxPu-8" value="" style="ellipse;whiteSpace=wrap;html=1;aspect=fixed;" vertex="1" parent="SwH7dukcDxPWIbXSBxPu-1">
          <mxGeometry x="860" y="140" width="80" height="80" as="geometry" />
        </mxCell>
        <mxCell id="SwH7dukcDxPWIbXSBxPu-9" value="Instagram" style="text;html=1;align=center;verticalAlign=middle;whiteSpace=wrap;rounded=0;" vertex="1" parent="SwH7dukcDxPWIbXSBxPu-1">
          <mxGeometry x="960" y="165" width="60" height="30" as="geometry" />
        </mxCell>
        <mxCell id="SwH7dukcDxPWIbXSBxPu-10" value="Facebook" style="text;html=1;align=center;verticalAlign=middle;whiteSpace=wrap;rounded=0;" vertex="1" parent="SwH7dukcDxPWIbXSBxPu-1">
          <mxGeometry x="870" y="165" width="60" height="30" as="geometry" />
        </mxCell>
        <mxCell id="SwH7dukcDxPWIbXSBxPu-11" value="" style="verticalLabelPosition=bottom;shadow=0;dashed=0;align=center;html=1;verticalAlign=top;strokeWidth=1;shape=mxgraph.mockup.markup.line;strokeColor=#999999;" vertex="1" parent="SwH7dukcDxPWIbXSBxPu-1">
          <mxGeometry y="300" width="1050" height="20" as="geometry" />
        </mxCell>
        <mxCell id="SwH7dukcDxPWIbXSBxPu-12" value="" style="group;fontSize=14;" vertex="1" connectable="0" parent="SwH7dukcDxPWIbXSBxPu-1">
          <mxGeometry x="30" y="265" width="990" height="30" as="geometry" />
        </mxCell>
        <mxCell id="SwH7dukcDxPWIbXSBxPu-13" value="Home" style="text;html=1;align=center;verticalAlign=middle;whiteSpace=wrap;rounded=0;" vertex="1" parent="SwH7dukcDxPWIbXSBxPu-12">
          <mxGeometry width="118.8" height="30" as="geometry" />
        </mxCell>
        <mxCell id="SwH7dukcDxPWIbXSBxPu-14" value="New" style="text;html=1;align=center;verticalAlign=middle;whiteSpace=wrap;rounded=0;" vertex="1" parent="SwH7dukcDxPWIbXSBxPu-12">
          <mxGeometry x="190.07999999999998" width="118.8" height="30" as="geometry" />
        </mxCell>
        <mxCell id="SwH7dukcDxPWIbXSBxPu-15" value="Deals" style="text;html=1;align=center;verticalAlign=middle;whiteSpace=wrap;rounded=0;" vertex="1" parent="SwH7dukcDxPWIbXSBxPu-12">
          <mxGeometry x="364.32" width="118.8" height="30" as="geometry" />
        </mxCell>
        <mxCell id="SwH7dukcDxPWIbXSBxPu-16" value="Pokemon" style="text;html=1;align=center;verticalAlign=middle;whiteSpace=wrap;rounded=0;" vertex="1" parent="SwH7dukcDxPWIbXSBxPu-12">
          <mxGeometry x="538.56" width="118.8" height="30" as="geometry" />
        </mxCell>
        <mxCell id="SwH7dukcDxPWIbXSBxPu-17" value="MTG" style="text;html=1;align=center;verticalAlign=middle;whiteSpace=wrap;rounded=0;" vertex="1" parent="SwH7dukcDxPWIbXSBxPu-12">
          <mxGeometry x="712.8" width="118.8" height="30" as="geometry" />
        </mxCell>
        <mxCell id="SwH7dukcDxPWIbXSBxPu-18" value="Cart" style="text;html=1;align=center;verticalAlign=middle;whiteSpace=wrap;rounded=0;" vertex="1" parent="SwH7dukcDxPWIbXSBxPu-12">
          <mxGeometry x="871.2" width="118.8" height="30" as="geometry" />
        </mxCell>
        <mxCell id="SwH7dukcDxPWIbXSBxPu-67" value="" style="group" vertex="1" connectable="0" parent="SwH7dukcDxPWIbXSBxPu-1">
          <mxGeometry x="124" y="464" width="402" height="356" as="geometry" />
        </mxCell>
        <mxCell id="SwH7dukcDxPWIbXSBxPu-42" value="SUBMIT" style="strokeWidth=1;shadow=0;dashed=0;align=center;html=1;shape=mxgraph.mockup.forms.rrect;rSize=5;strokeColor=none;fontColor=#ffffff;fillColor=#66bbff;fontSize=16;fontStyle=1;" vertex="1" parent="SwH7dukcDxPWIbXSBxPu-67">
          <mxGeometry x="300" y="290" width="100" height="30" as="geometry" />
        </mxCell>
        <mxCell id="SwH7dukcDxPWIbXSBxPu-31" value="First Name:" style="strokeWidth=1;shadow=0;dashed=0;align=center;html=1;shape=mxgraph.mockup.forms.anchor;align=right;spacingRight=2;fontColor=#666666;" vertex="1" parent="SwH7dukcDxPWIbXSBxPu-67">
          <mxGeometry width="50" height="18" as="geometry" />
        </mxCell>
        <mxCell id="SwH7dukcDxPWIbXSBxPu-32" value="" style="strokeWidth=1;shadow=0;dashed=0;align=center;html=1;shape=mxgraph.mockup.forms.rrect;fillColor=#ffffff;rSize=0;fontColor=#666666;align=left;spacingLeft=3;strokeColor=#999999;" vertex="1" parent="SwH7dukcDxPWIbXSBxPu-67">
          <mxGeometry x="50" width="350" height="18" as="geometry" />
        </mxCell>
        <mxCell id="SwH7dukcDxPWIbXSBxPu-33" value="Last Name:" style="strokeWidth=1;shadow=0;dashed=0;align=center;html=1;shape=mxgraph.mockup.forms.anchor;align=right;spacingRight=2;fontColor=#666666;" vertex="1" parent="SwH7dukcDxPWIbXSBxPu-67">
          <mxGeometry y="35" width="50" height="18" as="geometry" />
        </mxCell>
        <mxCell id="SwH7dukcDxPWIbXSBxPu-34" value="" style="strokeWidth=1;shadow=0;dashed=0;align=center;html=1;shape=mxgraph.mockup.forms.rrect;fillColor=#ffffff;rSize=0;fontColor=#666666;align=left;spacingLeft=3;strokeColor=#999999;" vertex="1" parent="SwH7dukcDxPWIbXSBxPu-67">
          <mxGeometry x="50" y="35" width="350" height="18" as="geometry" />
        </mxCell>
        <mxCell id="SwH7dukcDxPWIbXSBxPu-39" value="Card Number:" style="strokeWidth=1;shadow=0;dashed=0;align=center;html=1;shape=mxgraph.mockup.forms.anchor;align=right;spacingRight=2;fontColor=#666666;" vertex="1" parent="SwH7dukcDxPWIbXSBxPu-67">
          <mxGeometry y="140" width="50" height="18" as="geometry" />
        </mxCell>
        <mxCell id="SwH7dukcDxPWIbXSBxPu-40" value="" style="strokeWidth=1;shadow=0;dashed=0;align=center;html=1;shape=mxgraph.mockup.forms.rrect;fillColor=#ffffff;rSize=0;fontColor=#666666;align=left;spacingLeft=3;strokeColor=#999999;" vertex="1" parent="SwH7dukcDxPWIbXSBxPu-67">
          <mxGeometry x="50" y="140" width="350" height="18" as="geometry" />
        </mxCell>
        <mxCell id="SwH7dukcDxPWIbXSBxPu-56" value="" style="group" vertex="1" connectable="0" parent="SwH7dukcDxPWIbXSBxPu-67">
          <mxGeometry y="70" width="400" height="53" as="geometry" />
        </mxCell>
        <mxCell id="SwH7dukcDxPWIbXSBxPu-35" value="Billing Address" style="strokeWidth=1;shadow=0;dashed=0;align=center;html=1;shape=mxgraph.mockup.forms.anchor;align=right;spacingRight=2;fontColor=#666666;" vertex="1" parent="SwH7dukcDxPWIbXSBxPu-56">
          <mxGeometry width="50" height="18" as="geometry" />
        </mxCell>
        <mxCell id="SwH7dukcDxPWIbXSBxPu-36" value="" style="strokeWidth=1;shadow=0;dashed=0;align=center;html=1;shape=mxgraph.mockup.forms.rrect;fillColor=#ffffff;rSize=0;fontColor=#666666;align=left;spacingLeft=3;strokeColor=#999999;" vertex="1" parent="SwH7dukcDxPWIbXSBxPu-56">
          <mxGeometry x="50" width="350" height="18" as="geometry" />
        </mxCell>
        <mxCell id="SwH7dukcDxPWIbXSBxPu-48" value="" style="group" vertex="1" connectable="0" parent="SwH7dukcDxPWIbXSBxPu-56">
          <mxGeometry y="35" width="400" height="18" as="geometry" />
        </mxCell>
        <mxCell id="SwH7dukcDxPWIbXSBxPu-44" value="" style="group" vertex="1" connectable="0" parent="SwH7dukcDxPWIbXSBxPu-48">
          <mxGeometry width="200" height="18" as="geometry" />
        </mxCell>
        <mxCell id="SwH7dukcDxPWIbXSBxPu-37" value="City:" style="strokeWidth=1;shadow=0;dashed=0;align=center;html=1;shape=mxgraph.mockup.forms.anchor;align=right;spacingRight=2;fontColor=#666666;" vertex="1" parent="SwH7dukcDxPWIbXSBxPu-44">
          <mxGeometry width="50" height="18" as="geometry" />
        </mxCell>
        <mxCell id="SwH7dukcDxPWIbXSBxPu-38" value="" style="strokeWidth=1;shadow=0;dashed=0;align=center;html=1;shape=mxgraph.mockup.forms.rrect;fillColor=#ffffff;rSize=0;fontColor=#666666;align=left;spacingLeft=3;strokeColor=#999999;" vertex="1" parent="SwH7dukcDxPWIbXSBxPu-44">
          <mxGeometry x="50" width="150" height="18" as="geometry" />
        </mxCell>
        <mxCell id="SwH7dukcDxPWIbXSBxPu-45" value="" style="group" vertex="1" connectable="0" parent="SwH7dukcDxPWIbXSBxPu-48">
          <mxGeometry x="200" width="200" height="18" as="geometry" />
        </mxCell>
        <mxCell id="SwH7dukcDxPWIbXSBxPu-46" value="State:" style="strokeWidth=1;shadow=0;dashed=0;align=center;html=1;shape=mxgraph.mockup.forms.anchor;align=right;spacingRight=2;fontColor=#666666;" vertex="1" parent="SwH7dukcDxPWIbXSBxPu-45">
          <mxGeometry width="50" height="18" as="geometry" />
        </mxCell>
        <mxCell id="SwH7dukcDxPWIbXSBxPu-47" value="" style="strokeWidth=1;shadow=0;dashed=0;align=center;html=1;shape=mxgraph.mockup.forms.rrect;fillColor=#ffffff;rSize=0;fontColor=#666666;align=left;spacingLeft=3;strokeColor=#999999;" vertex="1" parent="SwH7dukcDxPWIbXSBxPu-45">
          <mxGeometry x="50" width="150" height="18" as="geometry" />
        </mxCell>
        <mxCell id="jzoRylP7D7RpA-vQY2vE-18" value="" style="rounded=1;whiteSpace=wrap;html=1;" vertex="1" parent="SwH7dukcDxPWIbXSBxPu-67">
          <mxGeometry x="51" y="290" width="219" height="60" as="geometry" />
        </mxCell>
        <mxCell id="jzoRylP7D7RpA-vQY2vE-20" value="Total Purchase Amount" style="text;html=1;align=center;verticalAlign=middle;whiteSpace=wrap;rounded=0;" vertex="1" parent="SwH7dukcDxPWIbXSBxPu-67">
          <mxGeometry x="70" y="305" width="180" height="30" as="geometry" />
        </mxCell>
        <mxCell id="jzoRylP7D7RpA-vQY2vE-21" value="CANCEL" style="strokeWidth=1;shadow=0;dashed=0;align=center;html=1;shape=mxgraph.mockup.forms.rrect;rSize=5;strokeColor=none;fontColor=#ffffff;fillColor=#66bbff;fontSize=16;fontStyle=1;" vertex="1" parent="SwH7dukcDxPWIbXSBxPu-67">
          <mxGeometry x="302" y="326" width="100" height="30" as="geometry" />
        </mxCell>
        <mxCell id="SwH7dukcDxPWIbXSBxPu-68" value="&lt;font style=&quot;font-size: 24px;&quot;&gt;Enter Payment Information&lt;/font&gt;" style="text;html=1;align=center;verticalAlign=middle;whiteSpace=wrap;rounded=0;" vertex="1" parent="SwH7dukcDxPWIbXSBxPu-1">
          <mxGeometry x="174" y="402" width="350" height="30" as="geometry" />
        </mxCell>
        <mxCell id="jzoRylP7D7RpA-vQY2vE-17" value="&lt;font style=&quot;font-size: 24px;&quot;&gt;Cart Summary&lt;/font&gt;" style="text;html=1;align=center;verticalAlign=middle;whiteSpace=wrap;rounded=0;" vertex="1" parent="SwH7dukcDxPWIbXSBxPu-1">
          <mxGeometry x="580" y="402" width="350" height="30" as="geometry" />
        </mxCell>
        <mxCell id="SwH7dukcDxPWIbXSBxPu-49" value="" style="group" vertex="1" connectable="0" parent="1">
          <mxGeometry x="124" y="660" width="400" height="18" as="geometry" />
        </mxCell>
        <mxCell id="SwH7dukcDxPWIbXSBxPu-50" value="" style="group" vertex="1" connectable="0" parent="SwH7dukcDxPWIbXSBxPu-49">
          <mxGeometry width="200" height="18" as="geometry" />
        </mxCell>
        <mxCell id="SwH7dukcDxPWIbXSBxPu-51" value="CVV:" style="strokeWidth=1;shadow=0;dashed=0;align=center;html=1;shape=mxgraph.mockup.forms.anchor;align=right;spacingRight=2;fontColor=#666666;" vertex="1" parent="SwH7dukcDxPWIbXSBxPu-50">
          <mxGeometry width="50" height="18" as="geometry" />
        </mxCell>
        <mxCell id="SwH7dukcDxPWIbXSBxPu-52" value="" style="strokeWidth=1;shadow=0;dashed=0;align=center;html=1;shape=mxgraph.mockup.forms.rrect;fillColor=#ffffff;rSize=0;fontColor=#666666;align=left;spacingLeft=3;strokeColor=#999999;" vertex="1" parent="SwH7dukcDxPWIbXSBxPu-50">
          <mxGeometry x="50" width="150" height="18" as="geometry" />
        </mxCell>
        <mxCell id="SwH7dukcDxPWIbXSBxPu-53" value="" style="group" vertex="1" connectable="0" parent="SwH7dukcDxPWIbXSBxPu-49">
          <mxGeometry x="200" width="200" height="18" as="geometry" />
        </mxCell>
        <mxCell id="SwH7dukcDxPWIbXSBxPu-54" value="Expiry:" style="strokeWidth=1;shadow=0;dashed=0;align=center;html=1;shape=mxgraph.mockup.forms.anchor;align=right;spacingRight=2;fontColor=#666666;" vertex="1" parent="SwH7dukcDxPWIbXSBxPu-53">
          <mxGeometry width="50" height="18" as="geometry" />
        </mxCell>
        <mxCell id="SwH7dukcDxPWIbXSBxPu-55" value="" style="strokeWidth=1;shadow=0;dashed=0;align=center;html=1;shape=mxgraph.mockup.forms.rrect;fillColor=#ffffff;rSize=0;fontColor=#666666;align=left;spacingLeft=3;strokeColor=#999999;" vertex="1" parent="SwH7dukcDxPWIbXSBxPu-53">
          <mxGeometry x="50" width="150" height="18" as="geometry" />
        </mxCell>
        <mxCell id="SwH7dukcDxPWIbXSBxPu-57" value="" style="group" vertex="1" connectable="0" parent="1">
          <mxGeometry x="124" y="694" width="400" height="53" as="geometry" />
        </mxCell>
        <mxCell id="SwH7dukcDxPWIbXSBxPu-58" value="Shipping Address" style="strokeWidth=1;shadow=0;dashed=0;align=center;html=1;shape=mxgraph.mockup.forms.anchor;align=right;spacingRight=2;fontColor=#666666;" vertex="1" parent="SwH7dukcDxPWIbXSBxPu-57">
          <mxGeometry width="50" height="18" as="geometry" />
        </mxCell>
        <mxCell id="SwH7dukcDxPWIbXSBxPu-59" value="" style="strokeWidth=1;shadow=0;dashed=0;align=center;html=1;shape=mxgraph.mockup.forms.rrect;fillColor=#ffffff;rSize=0;fontColor=#666666;align=left;spacingLeft=3;strokeColor=#999999;" vertex="1" parent="SwH7dukcDxPWIbXSBxPu-57">
          <mxGeometry x="50" width="350" height="18" as="geometry" />
        </mxCell>
        <mxCell id="SwH7dukcDxPWIbXSBxPu-60" value="" style="group" vertex="1" connectable="0" parent="SwH7dukcDxPWIbXSBxPu-57">
          <mxGeometry y="35" width="400" height="18" as="geometry" />
        </mxCell>
        <mxCell id="SwH7dukcDxPWIbXSBxPu-61" value="" style="group" vertex="1" connectable="0" parent="SwH7dukcDxPWIbXSBxPu-60">
          <mxGeometry width="200" height="18" as="geometry" />
        </mxCell>
        <mxCell id="SwH7dukcDxPWIbXSBxPu-62" value="City:" style="strokeWidth=1;shadow=0;dashed=0;align=center;html=1;shape=mxgraph.mockup.forms.anchor;align=right;spacingRight=2;fontColor=#666666;" vertex="1" parent="SwH7dukcDxPWIbXSBxPu-61">
          <mxGeometry width="50" height="18" as="geometry" />
        </mxCell>
        <mxCell id="SwH7dukcDxPWIbXSBxPu-63" value="" style="strokeWidth=1;shadow=0;dashed=0;align=center;html=1;shape=mxgraph.mockup.forms.rrect;fillColor=#ffffff;rSize=0;fontColor=#666666;align=left;spacingLeft=3;strokeColor=#999999;" vertex="1" parent="SwH7dukcDxPWIbXSBxPu-61">
          <mxGeometry x="50" width="150" height="18" as="geometry" />
        </mxCell>
        <mxCell id="SwH7dukcDxPWIbXSBxPu-64" value="" style="group" vertex="1" connectable="0" parent="SwH7dukcDxPWIbXSBxPu-60">
          <mxGeometry x="200" width="200" height="18" as="geometry" />
        </mxCell>
        <mxCell id="SwH7dukcDxPWIbXSBxPu-65" value="State:" style="strokeWidth=1;shadow=0;dashed=0;align=center;html=1;shape=mxgraph.mockup.forms.anchor;align=right;spacingRight=2;fontColor=#666666;" vertex="1" parent="SwH7dukcDxPWIbXSBxPu-64">
          <mxGeometry width="50" height="18" as="geometry" />
        </mxCell>
        <mxCell id="SwH7dukcDxPWIbXSBxPu-66" value="" style="strokeWidth=1;shadow=0;dashed=0;align=center;html=1;shape=mxgraph.mockup.forms.rrect;fillColor=#ffffff;rSize=0;fontColor=#666666;align=left;spacingLeft=3;strokeColor=#999999;" vertex="1" parent="SwH7dukcDxPWIbXSBxPu-64">
          <mxGeometry x="50" width="150" height="18" as="geometry" />
        </mxCell>
        <mxCell id="jzoRylP7D7RpA-vQY2vE-16" value="" style="group" vertex="1" connectable="0" parent="1">
          <mxGeometry x="580" y="481" width="360" height="405" as="geometry" />
        </mxCell>
        <mxCell id="jzoRylP7D7RpA-vQY2vE-1" value="" style="group" vertex="1" connectable="0" parent="jzoRylP7D7RpA-vQY2vE-16">
          <mxGeometry y="299.43127962085305" width="360" height="105.56872037914691" as="geometry" />
        </mxCell>
        <mxCell id="jzoRylP7D7RpA-vQY2vE-2" value="&lt;h1 style=&quot;margin-top: 0px;&quot;&gt;Card Details&lt;span style=&quot;white-space: pre;&quot;&gt;&lt;span style=&quot;white-space: pre;&quot;&gt;&#x9;&lt;/span&gt;      Price&lt;/span&gt;&lt;/h1&gt;&lt;p&gt;Lorem ipsum dolor sit amet, consectetur adipisicing elit, sed do eiusmod tempor incididunt ut labore et dolore magna aliqua.&amp;nbsp;&lt;span style=&quot;background-color: initial;&quot;&gt;Lorem ipsum dolor sit amet, consectetur adipisicing elit, sed do eiusmod tempor incididunt ut labore et dolore magna aliqua.&lt;/span&gt;&lt;span style=&quot;background-color: initial;&quot;&gt;Lorem ipsum dolor sit amet, consectetur adipisicing elit, sed do eiusmod tempor incididunt ut labore et dolore magna aliqua.&lt;/span&gt;&lt;/p&gt;" style="text;html=1;whiteSpace=wrap;overflow=hidden;rounded=0;" vertex="1" parent="jzoRylP7D7RpA-vQY2vE-1">
          <mxGeometry x="85.26315789473684" y="7.35781990521327" width="274.7368421052631" height="91.17298578199052" as="geometry" />
        </mxCell>
        <mxCell id="jzoRylP7D7RpA-vQY2vE-3" value="" style="group" vertex="1" connectable="0" parent="jzoRylP7D7RpA-vQY2vE-1">
          <mxGeometry width="75.78947368421052" height="105.56872037914691" as="geometry" />
        </mxCell>
        <mxCell id="jzoRylP7D7RpA-vQY2vE-4" value="" style="verticalLabelPosition=bottom;shadow=0;dashed=0;align=center;html=1;verticalAlign=top;strokeWidth=1;shape=mxgraph.mockup.graphics.simpleIcon;strokeColor=#999999;" vertex="1" parent="jzoRylP7D7RpA-vQY2vE-3">
          <mxGeometry width="75.78947368421052" height="105.56872037914691" as="geometry" />
        </mxCell>
        <mxCell id="jzoRylP7D7RpA-vQY2vE-5" value="Front" style="text;html=1;align=center;verticalAlign=middle;whiteSpace=wrap;rounded=0;" vertex="1" parent="jzoRylP7D7RpA-vQY2vE-3">
          <mxGeometry x="28.421052631578945" y="13.573121191604603" width="18.94736842105263" height="9.048747461069734" as="geometry" />
        </mxCell>
        <mxCell id="jzoRylP7D7RpA-vQY2vE-6" value="" style="group" vertex="1" connectable="0" parent="jzoRylP7D7RpA-vQY2vE-16">
          <mxGeometry y="147.15639810426538" width="360" height="105.56872037914691" as="geometry" />
        </mxCell>
        <mxCell id="jzoRylP7D7RpA-vQY2vE-7" value="&lt;h1 style=&quot;margin-top: 0px;&quot;&gt;Card Details&lt;span style=&quot;white-space: pre;&quot;&gt;&#x9;      Price&lt;/span&gt;&lt;/h1&gt;&lt;p&gt;Lorem ipsum dolor sit amet, consectetur adipisicing elit, sed do eiusmod tempor incididunt ut labore et dolore magna aliqua.&amp;nbsp;&lt;span style=&quot;background-color: initial;&quot;&gt;Lorem ipsum dolor sit amet, consectetur adipisicing elit, sed do eiusmod tempor incididunt ut labore et dolore magna aliqua.&lt;/span&gt;&lt;span style=&quot;background-color: initial;&quot;&gt;Lorem ipsum dolor sit amet, consectetur adipisicing elit, sed do eiusmod tempor incididunt ut labore et dolore magna aliqua.&lt;/span&gt;&lt;/p&gt;" style="text;html=1;whiteSpace=wrap;overflow=hidden;rounded=0;" vertex="1" parent="jzoRylP7D7RpA-vQY2vE-6">
          <mxGeometry x="85.26315789473684" y="7.35781990521327" width="274.7368421052631" height="91.17298578199052" as="geometry" />
        </mxCell>
        <mxCell id="jzoRylP7D7RpA-vQY2vE-8" value="" style="group" vertex="1" connectable="0" parent="jzoRylP7D7RpA-vQY2vE-6">
          <mxGeometry width="75.78947368421052" height="105.56872037914691" as="geometry" />
        </mxCell>
        <mxCell id="jzoRylP7D7RpA-vQY2vE-9" value="" style="verticalLabelPosition=bottom;shadow=0;dashed=0;align=center;html=1;verticalAlign=top;strokeWidth=1;shape=mxgraph.mockup.graphics.simpleIcon;strokeColor=#999999;" vertex="1" parent="jzoRylP7D7RpA-vQY2vE-8">
          <mxGeometry width="75.78947368421052" height="105.56872037914691" as="geometry" />
        </mxCell>
        <mxCell id="jzoRylP7D7RpA-vQY2vE-10" value="Front" style="text;html=1;align=center;verticalAlign=middle;whiteSpace=wrap;rounded=0;" vertex="1" parent="jzoRylP7D7RpA-vQY2vE-8">
          <mxGeometry x="28.421052631578945" y="13.573121191604603" width="18.94736842105263" height="9.048747461069734" as="geometry" />
        </mxCell>
        <mxCell id="jzoRylP7D7RpA-vQY2vE-11" value="" style="group" vertex="1" connectable="0" parent="jzoRylP7D7RpA-vQY2vE-16">
          <mxGeometry width="360" height="105.56872037914691" as="geometry" />
        </mxCell>
        <mxCell id="jzoRylP7D7RpA-vQY2vE-12" value="&lt;h1 style=&quot;margin-top: 0px;&quot;&gt;Card Details&lt;span style=&quot;white-space: pre;&quot;&gt;&#x9;&lt;/span&gt;&lt;span style=&quot;white-space: pre;&quot;&gt;&#x9;&lt;/span&gt;&lt;span style=&quot;white-space: pre;&quot;&gt;Price&lt;/span&gt;&lt;/h1&gt;&lt;p&gt;Lorem ipsum dolor sit amet, consectetur adipisicing elit, sed do eiusmod tempor incididunt ut labore et dolore magna aliqua.&amp;nbsp;&lt;span style=&quot;background-color: initial;&quot;&gt;Lorem ipsum dolor sit amet, consectetur adipisicing elit, sed do eiusmod tempor incididunt ut labore et dolore magna aliqua.&lt;/span&gt;&lt;span style=&quot;background-color: initial;&quot;&gt;Lorem ipsum dolor sit amet, consectetur adipisicing elit, sed do eiusmod tempor incididunt ut labore et dolore magna aliqua.&lt;/span&gt;&lt;/p&gt;" style="text;html=1;whiteSpace=wrap;overflow=hidden;rounded=0;" vertex="1" parent="jzoRylP7D7RpA-vQY2vE-11">
          <mxGeometry x="85.26315789473684" y="7.35781990521327" width="274.7368421052631" height="91.17298578199052" as="geometry" />
        </mxCell>
        <mxCell id="jzoRylP7D7RpA-vQY2vE-13" value="" style="group" vertex="1" connectable="0" parent="jzoRylP7D7RpA-vQY2vE-11">
          <mxGeometry width="75.78947368421052" height="105.56872037914691" as="geometry" />
        </mxCell>
        <mxCell id="jzoRylP7D7RpA-vQY2vE-14" value="" style="verticalLabelPosition=bottom;shadow=0;dashed=0;align=center;html=1;verticalAlign=top;strokeWidth=1;shape=mxgraph.mockup.graphics.simpleIcon;strokeColor=#999999;" vertex="1" parent="jzoRylP7D7RpA-vQY2vE-13">
          <mxGeometry width="75.78947368421052" height="105.56872037914691" as="geometry" />
        </mxCell>
        <mxCell id="jzoRylP7D7RpA-vQY2vE-15" value="Front" style="text;html=1;align=center;verticalAlign=middle;whiteSpace=wrap;rounded=0;" vertex="1" parent="jzoRylP7D7RpA-vQY2vE-13">
          <mxGeometry x="28.421052631578945" y="13.573121191604603" width="18.94736842105263" height="9.048747461069734" as="geometry" />
        </mxCell>
        <mxCell id="jzoRylP7D7RpA-vQY2vE-19" value="Text" style="text;html=1;align=center;verticalAlign=middle;whiteSpace=wrap;rounded=0;" vertex="1" parent="1">
          <mxGeometry x="440" y="690" width="60" height="30" as="geometry" />
        </mxCell>
      </root>
    </mxGraphModel>
  </diagram>
  <diagram id="gSyIR92lAPySzkb91pml" name="Confirmation">
    <mxGraphModel dx="2236" dy="1014" grid="0" gridSize="10" guides="1" tooltips="1" connect="1" arrows="1" fold="1" page="0" pageScale="1" pageWidth="850" pageHeight="1100" math="0" shadow="0">
      <root>
        <mxCell id="0" />
        <mxCell id="1" parent="0" />
        <mxCell id="Wcaser6fwCAO6t2DAST4-1" value="" style="strokeWidth=1;shadow=0;dashed=0;align=center;html=1;shape=mxgraph.mockup.containers.browserWindow;rSize=0;strokeColor=#666666;mainText=,;recursiveResize=0;rounded=0;labelBackgroundColor=none;fontFamily=Verdana;fontSize=12" vertex="1" parent="1">
          <mxGeometry x="10" y="20" width="1050" height="940" as="geometry" />
        </mxCell>
        <mxCell id="Wcaser6fwCAO6t2DAST4-2" value="MintVintage&amp;nbsp;" style="strokeWidth=1;shadow=0;dashed=0;align=center;html=1;shape=mxgraph.mockup.containers.anchor;fontSize=17;fontColor=#666666;align=left;" vertex="1" parent="Wcaser6fwCAO6t2DAST4-1">
          <mxGeometry x="60" y="12" width="110" height="26" as="geometry" />
        </mxCell>
        <mxCell id="Wcaser6fwCAO6t2DAST4-3" value="https://www.mintvintage.com" style="strokeWidth=1;shadow=0;dashed=0;align=center;html=1;shape=mxgraph.mockup.containers.anchor;rSize=0;fontSize=17;fontColor=#666666;align=left;" vertex="1" parent="Wcaser6fwCAO6t2DAST4-1">
          <mxGeometry x="130" y="60" width="250" height="26" as="geometry" />
        </mxCell>
        <mxCell id="Wcaser6fwCAO6t2DAST4-4" value="MintVintage Header image" style="text;html=1;points=[];align=left;verticalAlign=top;spacingTop=-4;fontSize=30;fontFamily=Verdana" vertex="1" parent="Wcaser6fwCAO6t2DAST4-1">
          <mxGeometry x="30" y="140" width="340" height="50" as="geometry" />
        </mxCell>
        <mxCell id="Wcaser6fwCAO6t2DAST4-5" value="" style="verticalLabelPosition=bottom;shadow=0;dashed=0;align=center;html=1;verticalAlign=top;strokeWidth=1;shape=mxgraph.mockup.markup.line;strokeColor=#999999;rounded=0;labelBackgroundColor=none;fillColor=#ffffff;fontFamily=Verdana;fontSize=12;fontColor=#000000;" vertex="1" parent="Wcaser6fwCAO6t2DAST4-1">
          <mxGeometry y="240" width="1050" height="20" as="geometry" />
        </mxCell>
        <mxCell id="Wcaser6fwCAO6t2DAST4-7" value="" style="ellipse;whiteSpace=wrap;html=1;aspect=fixed;" vertex="1" parent="Wcaser6fwCAO6t2DAST4-1">
          <mxGeometry x="950" y="140" width="80" height="80" as="geometry" />
        </mxCell>
        <mxCell id="Wcaser6fwCAO6t2DAST4-8" value="" style="ellipse;whiteSpace=wrap;html=1;aspect=fixed;" vertex="1" parent="Wcaser6fwCAO6t2DAST4-1">
          <mxGeometry x="860" y="140" width="80" height="80" as="geometry" />
        </mxCell>
        <mxCell id="Wcaser6fwCAO6t2DAST4-9" value="Instagram" style="text;html=1;align=center;verticalAlign=middle;whiteSpace=wrap;rounded=0;" vertex="1" parent="Wcaser6fwCAO6t2DAST4-1">
          <mxGeometry x="960" y="165" width="60" height="30" as="geometry" />
        </mxCell>
        <mxCell id="Wcaser6fwCAO6t2DAST4-10" value="Facebook" style="text;html=1;align=center;verticalAlign=middle;whiteSpace=wrap;rounded=0;" vertex="1" parent="Wcaser6fwCAO6t2DAST4-1">
          <mxGeometry x="870" y="165" width="60" height="30" as="geometry" />
        </mxCell>
        <mxCell id="Wcaser6fwCAO6t2DAST4-11" value="" style="verticalLabelPosition=bottom;shadow=0;dashed=0;align=center;html=1;verticalAlign=top;strokeWidth=1;shape=mxgraph.mockup.markup.line;strokeColor=#999999;" vertex="1" parent="Wcaser6fwCAO6t2DAST4-1">
          <mxGeometry y="300" width="1050" height="20" as="geometry" />
        </mxCell>
        <mxCell id="Wcaser6fwCAO6t2DAST4-12" value="" style="group;fontSize=14;" vertex="1" connectable="0" parent="Wcaser6fwCAO6t2DAST4-1">
          <mxGeometry x="30" y="265" width="990" height="30" as="geometry" />
        </mxCell>
        <mxCell id="Wcaser6fwCAO6t2DAST4-13" value="Home" style="text;html=1;align=center;verticalAlign=middle;whiteSpace=wrap;rounded=0;" vertex="1" parent="Wcaser6fwCAO6t2DAST4-12">
          <mxGeometry width="118.8" height="30" as="geometry" />
        </mxCell>
        <mxCell id="Wcaser6fwCAO6t2DAST4-14" value="New" style="text;html=1;align=center;verticalAlign=middle;whiteSpace=wrap;rounded=0;" vertex="1" parent="Wcaser6fwCAO6t2DAST4-12">
          <mxGeometry x="190.07999999999998" width="118.8" height="30" as="geometry" />
        </mxCell>
        <mxCell id="Wcaser6fwCAO6t2DAST4-15" value="Deals" style="text;html=1;align=center;verticalAlign=middle;whiteSpace=wrap;rounded=0;" vertex="1" parent="Wcaser6fwCAO6t2DAST4-12">
          <mxGeometry x="364.32" width="118.8" height="30" as="geometry" />
        </mxCell>
        <mxCell id="Wcaser6fwCAO6t2DAST4-16" value="Pokemon" style="text;html=1;align=center;verticalAlign=middle;whiteSpace=wrap;rounded=0;" vertex="1" parent="Wcaser6fwCAO6t2DAST4-12">
          <mxGeometry x="538.56" width="118.8" height="30" as="geometry" />
        </mxCell>
        <mxCell id="Wcaser6fwCAO6t2DAST4-17" value="MTG" style="text;html=1;align=center;verticalAlign=middle;whiteSpace=wrap;rounded=0;" vertex="1" parent="Wcaser6fwCAO6t2DAST4-12">
          <mxGeometry x="712.8" width="118.8" height="30" as="geometry" />
        </mxCell>
        <mxCell id="Wcaser6fwCAO6t2DAST4-18" value="Cart" style="text;html=1;align=center;verticalAlign=middle;whiteSpace=wrap;rounded=0;" vertex="1" parent="Wcaser6fwCAO6t2DAST4-12">
          <mxGeometry x="871.2" width="118.8" height="30" as="geometry" />
        </mxCell>
        <mxCell id="Wcaser6fwCAO6t2DAST4-42" value="HOME" style="strokeWidth=1;shadow=0;dashed=0;align=center;html=1;shape=mxgraph.mockup.forms.rrect;rSize=5;strokeColor=none;fontColor=#ffffff;fillColor=#66bbff;fontSize=16;fontStyle=1;" vertex="1" parent="Wcaser6fwCAO6t2DAST4-1">
          <mxGeometry x="475" y="720" width="100" height="30" as="geometry" />
        </mxCell>
        <mxCell id="Wcaser6fwCAO6t2DAST4-43" value="" style="rounded=1;whiteSpace=wrap;html=1;" vertex="1" parent="Wcaser6fwCAO6t2DAST4-1">
          <mxGeometry x="375" y="460" width="300" height="210" as="geometry" />
        </mxCell>
        <mxCell id="Wcaser6fwCAO6t2DAST4-44" value="&lt;h1 style=&quot;margin-top: 0px;&quot;&gt;Order Confirmation&lt;/h1&gt;&lt;p&gt;Lorem ipsum dolor sit amet, consectetur adipisicing elit, sed do eiusmod tempor incididunt ut labore et dolore magna aliqua.&lt;/p&gt;" style="text;html=1;whiteSpace=wrap;overflow=hidden;rounded=0;" vertex="1" parent="1">
          <mxGeometry x="400" y="510" width="270" height="160" as="geometry" />
        </mxCell>
      </root>
    </mxGraphModel>
  </diagram>
  <diagram id="TQNopCUdRnMoejGVlrv7" name="Workflow Wireframe">
    <mxGraphModel dx="1608" dy="1076" grid="0" gridSize="10" guides="1" tooltips="1" connect="1" arrows="1" fold="1" page="0" pageScale="1" pageWidth="850" pageHeight="1100" math="0" shadow="0">
      <root>
        <mxCell id="0" />
        <mxCell id="1" parent="0" />
        <mxCell id="ChUalwXaERCa9BuaGawA-3" value="" style="group" vertex="1" connectable="0" parent="1">
          <mxGeometry x="-126" y="149" width="120" height="60" as="geometry" />
        </mxCell>
        <mxCell id="ChUalwXaERCa9BuaGawA-1" value="" style="rounded=1;whiteSpace=wrap;html=1;" vertex="1" parent="ChUalwXaERCa9BuaGawA-3">
          <mxGeometry width="120" height="60" as="geometry" />
        </mxCell>
        <mxCell id="ChUalwXaERCa9BuaGawA-2" value="User" style="text;html=1;align=center;verticalAlign=middle;whiteSpace=wrap;rounded=0;" vertex="1" parent="ChUalwXaERCa9BuaGawA-3">
          <mxGeometry x="30" y="15" width="60" height="30" as="geometry" />
        </mxCell>
        <mxCell id="ChUalwXaERCa9BuaGawA-4" value="" style="group" vertex="1" connectable="0" parent="1">
          <mxGeometry x="34" y="150" width="120" height="60" as="geometry" />
        </mxCell>
        <mxCell id="ChUalwXaERCa9BuaGawA-5" value="" style="rounded=1;whiteSpace=wrap;html=1;" vertex="1" parent="ChUalwXaERCa9BuaGawA-4">
          <mxGeometry width="120" height="60" as="geometry" />
        </mxCell>
        <mxCell id="ChUalwXaERCa9BuaGawA-6" value="Home" style="text;html=1;align=center;verticalAlign=middle;whiteSpace=wrap;rounded=0;" vertex="1" parent="ChUalwXaERCa9BuaGawA-4">
          <mxGeometry x="30" y="15" width="60" height="30" as="geometry" />
        </mxCell>
        <mxCell id="ChUalwXaERCa9BuaGawA-8" value="" style="endArrow=classic;html=1;rounded=0;entryX=0.013;entryY=0.627;entryDx=0;entryDy=0;entryPerimeter=0;exitX=0.987;exitY=0.63;exitDx=0;exitDy=0;exitPerimeter=0;" edge="1" parent="1" source="ChUalwXaERCa9BuaGawA-1" target="ChUalwXaERCa9BuaGawA-5">
          <mxGeometry width="50" height="50" relative="1" as="geometry">
            <mxPoint x="-35" y="295" as="sourcePoint" />
            <mxPoint x="15" y="245" as="targetPoint" />
          </mxGeometry>
        </mxCell>
        <mxCell id="ChUalwXaERCa9BuaGawA-9" value="" style="endArrow=none;dashed=1;html=1;rounded=0;" edge="1" parent="1">
          <mxGeometry width="50" height="50" relative="1" as="geometry">
            <mxPoint x="12" y="254" as="sourcePoint" />
            <mxPoint x="12" y="120" as="targetPoint" />
          </mxGeometry>
        </mxCell>
        <mxCell id="ChUalwXaERCa9BuaGawA-10" value="" style="group" vertex="1" connectable="0" parent="1">
          <mxGeometry x="-48" y="255" width="120" height="60" as="geometry" />
        </mxCell>
        <mxCell id="ChUalwXaERCa9BuaGawA-11" value="" style="rounded=1;whiteSpace=wrap;html=1;" vertex="1" parent="ChUalwXaERCa9BuaGawA-10">
          <mxGeometry width="120" height="60" as="geometry" />
        </mxCell>
        <mxCell id="ChUalwXaERCa9BuaGawA-12" value="Login/Register" style="text;html=1;align=center;verticalAlign=middle;whiteSpace=wrap;rounded=0;" vertex="1" parent="ChUalwXaERCa9BuaGawA-10">
          <mxGeometry x="30" y="15" width="60" height="30" as="geometry" />
        </mxCell>
        <mxCell id="ChUalwXaERCa9BuaGawA-13" value="" style="group" vertex="1" connectable="0" parent="1">
          <mxGeometry x="202" y="10" width="120" height="60" as="geometry" />
        </mxCell>
        <mxCell id="ChUalwXaERCa9BuaGawA-14" value="" style="rounded=1;whiteSpace=wrap;html=1;" vertex="1" parent="ChUalwXaERCa9BuaGawA-13">
          <mxGeometry width="120" height="60" as="geometry" />
        </mxCell>
        <mxCell id="ChUalwXaERCa9BuaGawA-15" value="New" style="text;html=1;align=center;verticalAlign=middle;whiteSpace=wrap;rounded=0;" vertex="1" parent="ChUalwXaERCa9BuaGawA-13">
          <mxGeometry x="30" y="15" width="60" height="30" as="geometry" />
        </mxCell>
        <mxCell id="ChUalwXaERCa9BuaGawA-16" value="" style="group" vertex="1" connectable="0" parent="1">
          <mxGeometry x="202" y="110" width="120" height="60" as="geometry" />
        </mxCell>
        <mxCell id="ChUalwXaERCa9BuaGawA-17" value="" style="rounded=1;whiteSpace=wrap;html=1;" vertex="1" parent="ChUalwXaERCa9BuaGawA-16">
          <mxGeometry width="120" height="60" as="geometry" />
        </mxCell>
        <mxCell id="ChUalwXaERCa9BuaGawA-18" value="Deals" style="text;html=1;align=center;verticalAlign=middle;whiteSpace=wrap;rounded=0;" vertex="1" parent="ChUalwXaERCa9BuaGawA-16">
          <mxGeometry x="30" y="15" width="60" height="30" as="geometry" />
        </mxCell>
        <mxCell id="ChUalwXaERCa9BuaGawA-19" value="" style="group" vertex="1" connectable="0" parent="1">
          <mxGeometry x="202" y="209" width="120" height="60" as="geometry" />
        </mxCell>
        <mxCell id="ChUalwXaERCa9BuaGawA-20" value="" style="rounded=1;whiteSpace=wrap;html=1;" vertex="1" parent="ChUalwXaERCa9BuaGawA-19">
          <mxGeometry width="120" height="60" as="geometry" />
        </mxCell>
        <mxCell id="ChUalwXaERCa9BuaGawA-21" value="Pokemon" style="text;html=1;align=center;verticalAlign=middle;whiteSpace=wrap;rounded=0;" vertex="1" parent="ChUalwXaERCa9BuaGawA-19">
          <mxGeometry x="30" y="15" width="60" height="30" as="geometry" />
        </mxCell>
        <mxCell id="ChUalwXaERCa9BuaGawA-22" value="" style="group" vertex="1" connectable="0" parent="1">
          <mxGeometry x="202" y="312" width="120" height="60" as="geometry" />
        </mxCell>
        <mxCell id="ChUalwXaERCa9BuaGawA-23" value="" style="rounded=1;whiteSpace=wrap;html=1;" vertex="1" parent="ChUalwXaERCa9BuaGawA-22">
          <mxGeometry width="120" height="60" as="geometry" />
        </mxCell>
        <mxCell id="ChUalwXaERCa9BuaGawA-24" value="MTG" style="text;html=1;align=center;verticalAlign=middle;whiteSpace=wrap;rounded=0;" vertex="1" parent="ChUalwXaERCa9BuaGawA-22">
          <mxGeometry x="30" y="15" width="60" height="30" as="geometry" />
        </mxCell>
        <mxCell id="ChUalwXaERCa9BuaGawA-26" value="" style="curved=1;endArrow=classic;html=1;rounded=0;entryX=0;entryY=0.5;entryDx=0;entryDy=0;exitX=0.9;exitY=-0.027;exitDx=0;exitDy=0;exitPerimeter=0;" edge="1" parent="1" source="ChUalwXaERCa9BuaGawA-5" target="ChUalwXaERCa9BuaGawA-14">
          <mxGeometry width="50" height="50" relative="1" as="geometry">
            <mxPoint x="155" y="83" as="sourcePoint" />
            <mxPoint x="205" y="33" as="targetPoint" />
          </mxGeometry>
        </mxCell>
        <mxCell id="ChUalwXaERCa9BuaGawA-27" value="" style="endArrow=classic;html=1;rounded=0;entryX=0;entryY=0.5;entryDx=0;entryDy=0;exitX=1;exitY=0.25;exitDx=0;exitDy=0;" edge="1" parent="1" source="ChUalwXaERCa9BuaGawA-5" target="ChUalwXaERCa9BuaGawA-17">
          <mxGeometry width="50" height="50" relative="1" as="geometry">
            <mxPoint x="133" y="266" as="sourcePoint" />
            <mxPoint x="183" y="216" as="targetPoint" />
          </mxGeometry>
        </mxCell>
        <mxCell id="ChUalwXaERCa9BuaGawA-28" value="" style="endArrow=classic;html=1;rounded=0;entryX=0;entryY=0.5;entryDx=0;entryDy=0;exitX=1;exitY=0.75;exitDx=0;exitDy=0;" edge="1" parent="1" source="ChUalwXaERCa9BuaGawA-5" target="ChUalwXaERCa9BuaGawA-20">
          <mxGeometry width="50" height="50" relative="1" as="geometry">
            <mxPoint x="110" y="291" as="sourcePoint" />
            <mxPoint x="160" y="241" as="targetPoint" />
          </mxGeometry>
        </mxCell>
        <mxCell id="ChUalwXaERCa9BuaGawA-30" value="" style="curved=1;endArrow=classic;html=1;rounded=0;entryX=0;entryY=0.25;entryDx=0;entryDy=0;exitX=0.66;exitY=1;exitDx=0;exitDy=0;exitPerimeter=0;" edge="1" parent="1" source="ChUalwXaERCa9BuaGawA-5" target="ChUalwXaERCa9BuaGawA-23">
          <mxGeometry width="50" height="50" relative="1" as="geometry">
            <mxPoint x="109" y="292" as="sourcePoint" />
            <mxPoint x="159" y="242" as="targetPoint" />
          </mxGeometry>
        </mxCell>
        <mxCell id="ChUalwXaERCa9BuaGawA-32" value="" style="group" vertex="1" connectable="0" parent="1">
          <mxGeometry x="202" y="10" width="120" height="60" as="geometry" />
        </mxCell>
        <mxCell id="ChUalwXaERCa9BuaGawA-33" value="" style="rounded=1;whiteSpace=wrap;html=1;" vertex="1" parent="ChUalwXaERCa9BuaGawA-32">
          <mxGeometry width="120" height="60" as="geometry" />
        </mxCell>
        <mxCell id="ChUalwXaERCa9BuaGawA-34" value="New" style="text;html=1;align=center;verticalAlign=middle;whiteSpace=wrap;rounded=0;" vertex="1" parent="ChUalwXaERCa9BuaGawA-32">
          <mxGeometry x="30" y="15" width="60" height="30" as="geometry" />
        </mxCell>
        <mxCell id="ChUalwXaERCa9BuaGawA-35" value="" style="group" vertex="1" connectable="0" parent="1">
          <mxGeometry x="434" y="160" width="120" height="60" as="geometry" />
        </mxCell>
        <mxCell id="ChUalwXaERCa9BuaGawA-36" value="" style="rounded=1;whiteSpace=wrap;html=1;" vertex="1" parent="ChUalwXaERCa9BuaGawA-35">
          <mxGeometry width="120" height="60" as="geometry" />
        </mxCell>
        <mxCell id="ChUalwXaERCa9BuaGawA-37" value="Cart" style="text;html=1;align=center;verticalAlign=middle;whiteSpace=wrap;rounded=0;" vertex="1" parent="ChUalwXaERCa9BuaGawA-35">
          <mxGeometry x="30" y="15" width="60" height="30" as="geometry" />
        </mxCell>
        <mxCell id="ChUalwXaERCa9BuaGawA-38" value="" style="endArrow=classic;startArrow=classic;html=1;rounded=0;entryX=1;entryY=0.5;entryDx=0;entryDy=0;exitX=0;exitY=0;exitDx=0;exitDy=0;" edge="1" parent="1" source="ChUalwXaERCa9BuaGawA-36" target="ChUalwXaERCa9BuaGawA-33">
          <mxGeometry width="50" height="50" relative="1" as="geometry">
            <mxPoint x="374" y="109" as="sourcePoint" />
            <mxPoint x="424" y="59" as="targetPoint" />
          </mxGeometry>
        </mxCell>
        <mxCell id="ChUalwXaERCa9BuaGawA-39" value="" style="endArrow=classic;startArrow=classic;html=1;rounded=0;entryX=0;entryY=0.25;entryDx=0;entryDy=0;exitX=1;exitY=0.5;exitDx=0;exitDy=0;" edge="1" parent="1" source="ChUalwXaERCa9BuaGawA-17" target="ChUalwXaERCa9BuaGawA-36">
          <mxGeometry width="50" height="50" relative="1" as="geometry">
            <mxPoint x="345" y="215" as="sourcePoint" />
            <mxPoint x="395" y="165" as="targetPoint" />
          </mxGeometry>
        </mxCell>
        <mxCell id="ChUalwXaERCa9BuaGawA-40" value="" style="endArrow=classic;startArrow=classic;html=1;rounded=0;entryX=0;entryY=0.5;entryDx=0;entryDy=0;exitX=1;exitY=0.5;exitDx=0;exitDy=0;" edge="1" parent="1" source="ChUalwXaERCa9BuaGawA-20" target="ChUalwXaERCa9BuaGawA-36">
          <mxGeometry width="50" height="50" relative="1" as="geometry">
            <mxPoint x="344" y="245" as="sourcePoint" />
            <mxPoint x="394" y="195" as="targetPoint" />
          </mxGeometry>
        </mxCell>
        <mxCell id="ChUalwXaERCa9BuaGawA-41" value="" style="endArrow=classic;startArrow=classic;html=1;rounded=0;entryX=0.083;entryY=1;entryDx=0;entryDy=0;entryPerimeter=0;exitX=1;exitY=0.5;exitDx=0;exitDy=0;" edge="1" parent="1" source="ChUalwXaERCa9BuaGawA-23" target="ChUalwXaERCa9BuaGawA-36">
          <mxGeometry width="50" height="50" relative="1" as="geometry">
            <mxPoint x="361" y="318" as="sourcePoint" />
            <mxPoint x="411" y="268" as="targetPoint" />
          </mxGeometry>
        </mxCell>
        <mxCell id="ChUalwXaERCa9BuaGawA-42" value="" style="group" vertex="1" connectable="0" parent="1">
          <mxGeometry x="642" y="160" width="120" height="60" as="geometry" />
        </mxCell>
        <mxCell id="ChUalwXaERCa9BuaGawA-43" value="" style="rounded=1;whiteSpace=wrap;html=1;" vertex="1" parent="ChUalwXaERCa9BuaGawA-42">
          <mxGeometry width="120" height="60" as="geometry" />
        </mxCell>
        <mxCell id="ChUalwXaERCa9BuaGawA-44" value="Checkout" style="text;html=1;align=center;verticalAlign=middle;whiteSpace=wrap;rounded=0;" vertex="1" parent="ChUalwXaERCa9BuaGawA-42">
          <mxGeometry x="30" y="15" width="60" height="30" as="geometry" />
        </mxCell>
        <mxCell id="ChUalwXaERCa9BuaGawA-45" value="" style="endArrow=classic;startArrow=classic;html=1;rounded=0;entryX=0;entryY=0.5;entryDx=0;entryDy=0;exitX=1;exitY=0.5;exitDx=0;exitDy=0;" edge="1" parent="1" source="ChUalwXaERCa9BuaGawA-36" target="ChUalwXaERCa9BuaGawA-43">
          <mxGeometry width="50" height="50" relative="1" as="geometry">
            <mxPoint x="548" y="303" as="sourcePoint" />
            <mxPoint x="598" y="253" as="targetPoint" />
          </mxGeometry>
        </mxCell>
        <mxCell id="ChUalwXaERCa9BuaGawA-47" value="" style="group" vertex="1" connectable="0" parent="1">
          <mxGeometry x="562" y="201" width="72" height="44" as="geometry" />
        </mxCell>
        <mxCell id="ChUalwXaERCa9BuaGawA-48" value="" style="rounded=1;whiteSpace=wrap;html=1;" vertex="1" parent="ChUalwXaERCa9BuaGawA-47">
          <mxGeometry width="72" height="44" as="geometry" />
        </mxCell>
        <mxCell id="ChUalwXaERCa9BuaGawA-49" value="Backout Option" style="text;html=1;align=center;verticalAlign=middle;whiteSpace=wrap;rounded=0;" vertex="1" parent="ChUalwXaERCa9BuaGawA-47">
          <mxGeometry x="18" y="11" width="36" height="22" as="geometry" />
        </mxCell>
        <mxCell id="ChUalwXaERCa9BuaGawA-50" value="" style="group" vertex="1" connectable="0" parent="1">
          <mxGeometry x="346" y="142" width="72" height="44" as="geometry" />
        </mxCell>
        <mxCell id="ChUalwXaERCa9BuaGawA-51" value="" style="rounded=1;whiteSpace=wrap;html=1;" vertex="1" parent="ChUalwXaERCa9BuaGawA-50">
          <mxGeometry width="58" height="28" as="geometry" />
        </mxCell>
        <mxCell id="ChUalwXaERCa9BuaGawA-52" value="Search" style="text;html=1;align=center;verticalAlign=middle;whiteSpace=wrap;rounded=0;" vertex="1" parent="ChUalwXaERCa9BuaGawA-50">
          <mxGeometry x="11" y="5" width="36" height="22" as="geometry" />
        </mxCell>
        <mxCell id="ChUalwXaERCa9BuaGawA-53" value="" style="group" vertex="1" connectable="0" parent="1">
          <mxGeometry x="361" y="93" width="72" height="44" as="geometry" />
        </mxCell>
        <mxCell id="ChUalwXaERCa9BuaGawA-54" value="" style="rounded=1;whiteSpace=wrap;html=1;" vertex="1" parent="ChUalwXaERCa9BuaGawA-53">
          <mxGeometry width="58" height="28" as="geometry" />
        </mxCell>
        <mxCell id="ChUalwXaERCa9BuaGawA-55" value="Search" style="text;html=1;align=center;verticalAlign=middle;whiteSpace=wrap;rounded=0;" vertex="1" parent="ChUalwXaERCa9BuaGawA-53">
          <mxGeometry x="11" y="5" width="36" height="22" as="geometry" />
        </mxCell>
        <mxCell id="ChUalwXaERCa9BuaGawA-58" value="" style="group" vertex="1" connectable="0" parent="1">
          <mxGeometry x="349" y="197" width="72" height="44" as="geometry" />
        </mxCell>
        <mxCell id="ChUalwXaERCa9BuaGawA-59" value="" style="rounded=1;whiteSpace=wrap;html=1;" vertex="1" parent="ChUalwXaERCa9BuaGawA-58">
          <mxGeometry width="58" height="28" as="geometry" />
        </mxCell>
        <mxCell id="ChUalwXaERCa9BuaGawA-60" value="Search" style="text;html=1;align=center;verticalAlign=middle;whiteSpace=wrap;rounded=0;" vertex="1" parent="ChUalwXaERCa9BuaGawA-58">
          <mxGeometry x="11" y="5" width="36" height="22" as="geometry" />
        </mxCell>
        <mxCell id="ChUalwXaERCa9BuaGawA-62" value="" style="group" vertex="1" connectable="0" parent="1">
          <mxGeometry x="356" y="262" width="72" height="44" as="geometry" />
        </mxCell>
        <mxCell id="ChUalwXaERCa9BuaGawA-63" value="" style="rounded=1;whiteSpace=wrap;html=1;" vertex="1" parent="ChUalwXaERCa9BuaGawA-62">
          <mxGeometry width="58" height="28" as="geometry" />
        </mxCell>
        <mxCell id="ChUalwXaERCa9BuaGawA-64" value="Search" style="text;html=1;align=center;verticalAlign=middle;whiteSpace=wrap;rounded=0;" vertex="1" parent="ChUalwXaERCa9BuaGawA-62">
          <mxGeometry x="11" y="5" width="36" height="22" as="geometry" />
        </mxCell>
        <mxCell id="ChUalwXaERCa9BuaGawA-65" value="" style="group" vertex="1" connectable="0" parent="1">
          <mxGeometry x="817" y="160" width="120" height="60" as="geometry" />
        </mxCell>
        <mxCell id="ChUalwXaERCa9BuaGawA-66" value="" style="rounded=1;whiteSpace=wrap;html=1;" vertex="1" parent="ChUalwXaERCa9BuaGawA-65">
          <mxGeometry width="120" height="60" as="geometry" />
        </mxCell>
        <mxCell id="ChUalwXaERCa9BuaGawA-67" value="Force Login" style="text;html=1;align=center;verticalAlign=middle;whiteSpace=wrap;rounded=0;" vertex="1" parent="ChUalwXaERCa9BuaGawA-65">
          <mxGeometry x="30" y="15" width="60" height="30" as="geometry" />
        </mxCell>
        <mxCell id="ChUalwXaERCa9BuaGawA-68" value="" style="group" vertex="1" connectable="0" parent="1">
          <mxGeometry x="985" y="156" width="120" height="60" as="geometry" />
        </mxCell>
        <mxCell id="ChUalwXaERCa9BuaGawA-69" value="" style="rounded=1;whiteSpace=wrap;html=1;" vertex="1" parent="ChUalwXaERCa9BuaGawA-68">
          <mxGeometry width="120" height="60" as="geometry" />
        </mxCell>
        <mxCell id="ChUalwXaERCa9BuaGawA-70" value="Confirmation" style="text;html=1;align=center;verticalAlign=middle;whiteSpace=wrap;rounded=0;" vertex="1" parent="ChUalwXaERCa9BuaGawA-68">
          <mxGeometry x="30" y="15" width="60" height="30" as="geometry" />
        </mxCell>
        <mxCell id="ChUalwXaERCa9BuaGawA-71" value="" style="endArrow=classic;html=1;rounded=0;exitX=1;exitY=0.5;exitDx=0;exitDy=0;entryX=0;entryY=0.5;entryDx=0;entryDy=0;" edge="1" parent="1" source="ChUalwXaERCa9BuaGawA-43" target="ChUalwXaERCa9BuaGawA-66">
          <mxGeometry width="50" height="50" relative="1" as="geometry">
            <mxPoint x="752" y="305" as="sourcePoint" />
            <mxPoint x="802" y="255" as="targetPoint" />
          </mxGeometry>
        </mxCell>
        <mxCell id="ChUalwXaERCa9BuaGawA-72" value="" style="endArrow=classic;html=1;rounded=0;exitX=1;exitY=0.5;exitDx=0;exitDy=0;" edge="1" parent="1" source="ChUalwXaERCa9BuaGawA-66" target="ChUalwXaERCa9BuaGawA-69">
          <mxGeometry width="50" height="50" relative="1" as="geometry">
            <mxPoint x="965" y="295" as="sourcePoint" />
            <mxPoint x="1015" y="245" as="targetPoint" />
          </mxGeometry>
        </mxCell>
        <mxCell id="ChUalwXaERCa9BuaGawA-73" value="&lt;font style=&quot;font-size: 18px;&quot;&gt;Workflow Wireframe&lt;/font&gt;" style="text;html=1;align=center;verticalAlign=middle;whiteSpace=wrap;rounded=0;" vertex="1" parent="1">
          <mxGeometry x="-123" y="6" width="216" height="30" as="geometry" />
        </mxCell>
        <mxCell id="FQLCCsc1KtYM-7mejaYk-1" value="" style="edgeStyle=orthogonalEdgeStyle;rounded=0;orthogonalLoop=1;jettySize=auto;html=1;" edge="1" parent="1" source="ChUalwXaERCa9BuaGawA-74" target="ChUalwXaERCa9BuaGawA-73">
          <mxGeometry relative="1" as="geometry" />
        </mxCell>
        <mxCell id="FQLCCsc1KtYM-7mejaYk-2" value="" style="edgeStyle=orthogonalEdgeStyle;rounded=0;orthogonalLoop=1;jettySize=auto;html=1;" edge="1" parent="1" source="ChUalwXaERCa9BuaGawA-74" target="ChUalwXaERCa9BuaGawA-73">
          <mxGeometry relative="1" as="geometry" />
        </mxCell>
        <mxCell id="ChUalwXaERCa9BuaGawA-74" value="&lt;font style=&quot;font-size: 36px;&quot;&gt;&lt;b&gt;MintVintage&lt;/b&gt;&lt;/font&gt;" style="text;html=1;align=center;verticalAlign=middle;whiteSpace=wrap;rounded=0;" vertex="1" parent="1">
          <mxGeometry x="-39" y="-31" width="60" height="30" as="geometry" />
        </mxCell>
      </root>
    </mxGraphModel>
  </diagram>
  <diagram id="Fkp-en-bH9w7cM0jWjU-" name="Functional Wireframe">
    <mxGraphModel dx="3195" dy="1668" grid="0" gridSize="10" guides="1" tooltips="1" connect="1" arrows="1" fold="1" page="0" pageScale="1" pageWidth="850" pageHeight="1100" math="0" shadow="0">
      <root>
        <mxCell id="0" />
        <mxCell id="1" parent="0" />
        <mxCell id="qUA6m6YGM7ILWIVQ5BVL-1" value="&lt;font style=&quot;font-size: 18px;&quot;&gt;Functional Wireframe&lt;/font&gt;" style="text;html=1;align=center;verticalAlign=middle;whiteSpace=wrap;rounded=0;" vertex="1" parent="1">
          <mxGeometry x="-123" y="6" width="216" height="30" as="geometry" />
        </mxCell>
        <mxCell id="qUA6m6YGM7ILWIVQ5BVL-2" value="&lt;font style=&quot;font-size: 36px;&quot;&gt;&lt;b&gt;MintVintage&lt;/b&gt;&lt;/font&gt;" style="text;html=1;align=center;verticalAlign=middle;whiteSpace=wrap;rounded=0;" vertex="1" parent="1">
          <mxGeometry x="-39" y="-31" width="60" height="30" as="geometry" />
        </mxCell>
        <mxCell id="qUA6m6YGM7ILWIVQ5BVL-3" value="" style="ellipse;whiteSpace=wrap;html=1;" vertex="1" parent="1">
          <mxGeometry x="175" y="-35" width="120" height="80" as="geometry" />
        </mxCell>
        <mxCell id="qUA6m6YGM7ILWIVQ5BVL-4" value="Start" style="text;html=1;align=center;verticalAlign=middle;whiteSpace=wrap;rounded=0;" vertex="1" parent="1">
          <mxGeometry x="205" y="-10" width="60" height="30" as="geometry" />
        </mxCell>
        <mxCell id="qUA6m6YGM7ILWIVQ5BVL-7" value="" style="rhombus;whiteSpace=wrap;html=1;" vertex="1" parent="1">
          <mxGeometry x="195" y="189" width="80" height="80" as="geometry" />
        </mxCell>
        <mxCell id="qUA6m6YGM7ILWIVQ5BVL-8" value="Validate" style="text;html=1;align=center;verticalAlign=middle;whiteSpace=wrap;rounded=0;" vertex="1" parent="1">
          <mxGeometry x="205" y="214" width="60" height="30" as="geometry" />
        </mxCell>
        <mxCell id="qUA6m6YGM7ILWIVQ5BVL-9" value="" style="endArrow=classic;html=1;rounded=0;entryX=0.5;entryY=0;entryDx=0;entryDy=0;exitX=0.5;exitY=1;exitDx=0;exitDy=0;" edge="1" parent="1" source="qUA6m6YGM7ILWIVQ5BVL-3" target="qUA6m6YGM7ILWIVQ5BVL-5">
          <mxGeometry width="50" height="50" relative="1" as="geometry">
            <mxPoint x="130" y="102" as="sourcePoint" />
            <mxPoint x="180" y="52" as="targetPoint" />
          </mxGeometry>
        </mxCell>
        <mxCell id="qUA6m6YGM7ILWIVQ5BVL-10" value="" style="endArrow=classic;html=1;rounded=0;entryX=0.5;entryY=0;entryDx=0;entryDy=0;exitX=0.5;exitY=1;exitDx=0;exitDy=0;" edge="1" parent="1" source="qUA6m6YGM7ILWIVQ5BVL-5" target="qUA6m6YGM7ILWIVQ5BVL-7">
          <mxGeometry width="50" height="50" relative="1" as="geometry">
            <mxPoint x="126" y="226" as="sourcePoint" />
            <mxPoint x="176" y="176" as="targetPoint" />
          </mxGeometry>
        </mxCell>
        <mxCell id="qUA6m6YGM7ILWIVQ5BVL-11" value="" style="endArrow=classic;html=1;rounded=0;exitX=0;exitY=0.5;exitDx=0;exitDy=0;entryX=0;entryY=0.5;entryDx=0;entryDy=0;" edge="1" parent="1" source="qUA6m6YGM7ILWIVQ5BVL-7" target="qUA6m6YGM7ILWIVQ5BVL-5">
          <mxGeometry width="50" height="50" relative="1" as="geometry">
            <mxPoint x="83" y="245" as="sourcePoint" />
            <mxPoint x="133" y="195" as="targetPoint" />
            <Array as="points">
              <mxPoint x="36" y="231" />
              <mxPoint x="36" y="120" />
            </Array>
          </mxGeometry>
        </mxCell>
        <mxCell id="qUA6m6YGM7ILWIVQ5BVL-12" value="" style="group" vertex="1" connectable="0" parent="1">
          <mxGeometry x="175" y="87" width="120" height="60" as="geometry" />
        </mxCell>
        <mxCell id="qUA6m6YGM7ILWIVQ5BVL-43" value="" style="group" vertex="1" connectable="0" parent="qUA6m6YGM7ILWIVQ5BVL-12">
          <mxGeometry width="120" height="60" as="geometry" />
        </mxCell>
        <mxCell id="qUA6m6YGM7ILWIVQ5BVL-5" value="" style="rounded=1;whiteSpace=wrap;html=1;" vertex="1" parent="qUA6m6YGM7ILWIVQ5BVL-43">
          <mxGeometry width="120" height="60" as="geometry" />
        </mxCell>
        <mxCell id="qUA6m6YGM7ILWIVQ5BVL-6" value="Login&lt;div&gt;(Define inputs)&lt;/div&gt;" style="text;html=1;align=center;verticalAlign=middle;whiteSpace=wrap;rounded=0;" vertex="1" parent="qUA6m6YGM7ILWIVQ5BVL-43">
          <mxGeometry x="20" y="15" width="81" height="30" as="geometry" />
        </mxCell>
        <mxCell id="qUA6m6YGM7ILWIVQ5BVL-17" value="" style="group" vertex="1" connectable="0" parent="1">
          <mxGeometry x="71" y="202" width="120" height="60" as="geometry" />
        </mxCell>
        <mxCell id="qUA6m6YGM7ILWIVQ5BVL-23" value="" style="group" vertex="1" connectable="0" parent="qUA6m6YGM7ILWIVQ5BVL-17">
          <mxGeometry x="23" y="6" width="81" height="52" as="geometry" />
        </mxCell>
        <mxCell id="qUA6m6YGM7ILWIVQ5BVL-18" value="" style="rounded=1;whiteSpace=wrap;html=1;" vertex="1" parent="qUA6m6YGM7ILWIVQ5BVL-23">
          <mxGeometry x="9" width="63" height="52" as="geometry" />
        </mxCell>
        <mxCell id="qUA6m6YGM7ILWIVQ5BVL-19" value="No" style="text;html=1;align=center;verticalAlign=middle;whiteSpace=wrap;rounded=0;" vertex="1" parent="qUA6m6YGM7ILWIVQ5BVL-23">
          <mxGeometry y="10" width="81" height="30" as="geometry" />
        </mxCell>
        <mxCell id="qUA6m6YGM7ILWIVQ5BVL-20" value="" style="group" vertex="1" connectable="0" parent="1">
          <mxGeometry x="-24" y="142" width="120" height="60" as="geometry" />
        </mxCell>
        <mxCell id="qUA6m6YGM7ILWIVQ5BVL-21" value="" style="rounded=1;whiteSpace=wrap;html=1;" vertex="1" parent="qUA6m6YGM7ILWIVQ5BVL-20">
          <mxGeometry width="120" height="60" as="geometry" />
        </mxCell>
        <mxCell id="qUA6m6YGM7ILWIVQ5BVL-22" value="Force User to correct" style="text;html=1;align=center;verticalAlign=middle;whiteSpace=wrap;rounded=0;" vertex="1" parent="qUA6m6YGM7ILWIVQ5BVL-20">
          <mxGeometry x="20" y="15" width="81" height="30" as="geometry" />
        </mxCell>
        <mxCell id="qUA6m6YGM7ILWIVQ5BVL-24" value="" style="group" vertex="1" connectable="0" parent="1">
          <mxGeometry x="406" y="199" width="120" height="60" as="geometry" />
        </mxCell>
        <mxCell id="qUA6m6YGM7ILWIVQ5BVL-25" value="" style="rounded=1;whiteSpace=wrap;html=1;" vertex="1" parent="qUA6m6YGM7ILWIVQ5BVL-24">
          <mxGeometry width="120" height="60" as="geometry" />
        </mxCell>
        <mxCell id="qUA6m6YGM7ILWIVQ5BVL-26" value="Browse Products" style="text;html=1;align=center;verticalAlign=middle;whiteSpace=wrap;rounded=0;" vertex="1" parent="qUA6m6YGM7ILWIVQ5BVL-24">
          <mxGeometry x="20" y="15" width="81" height="30" as="geometry" />
        </mxCell>
        <mxCell id="qUA6m6YGM7ILWIVQ5BVL-27" value="" style="endArrow=classic;html=1;rounded=0;entryX=0;entryY=0.5;entryDx=0;entryDy=0;exitX=1;exitY=0.5;exitDx=0;exitDy=0;" edge="1" parent="1" source="qUA6m6YGM7ILWIVQ5BVL-7" target="qUA6m6YGM7ILWIVQ5BVL-25">
          <mxGeometry width="50" height="50" relative="1" as="geometry">
            <mxPoint x="280" y="225" as="sourcePoint" />
            <mxPoint x="330" y="175" as="targetPoint" />
          </mxGeometry>
        </mxCell>
        <mxCell id="qUA6m6YGM7ILWIVQ5BVL-30" value="" style="rhombus;whiteSpace=wrap;html=1;" vertex="1" parent="1">
          <mxGeometry x="426" y="312" width="80" height="80" as="geometry" />
        </mxCell>
        <mxCell id="qUA6m6YGM7ILWIVQ5BVL-31" value="Product Selected" style="text;html=1;align=center;verticalAlign=middle;whiteSpace=wrap;rounded=0;" vertex="1" parent="1">
          <mxGeometry x="437" y="337" width="60" height="30" as="geometry" />
        </mxCell>
        <mxCell id="qUA6m6YGM7ILWIVQ5BVL-32" value="" style="endArrow=classic;html=1;rounded=0;exitX=0.5;exitY=1;exitDx=0;exitDy=0;entryX=0.5;entryY=0;entryDx=0;entryDy=0;" edge="1" parent="1" source="qUA6m6YGM7ILWIVQ5BVL-25" target="qUA6m6YGM7ILWIVQ5BVL-30">
          <mxGeometry width="50" height="50" relative="1" as="geometry">
            <mxPoint x="545" y="323" as="sourcePoint" />
            <mxPoint x="595" y="273" as="targetPoint" />
          </mxGeometry>
        </mxCell>
        <mxCell id="qUA6m6YGM7ILWIVQ5BVL-37" value="" style="endArrow=classic;html=1;rounded=0;exitX=1.123;exitY=0.433;exitDx=0;exitDy=0;exitPerimeter=0;entryX=1;entryY=0.5;entryDx=0;entryDy=0;" edge="1" parent="1" source="qUA6m6YGM7ILWIVQ5BVL-31" target="qUA6m6YGM7ILWIVQ5BVL-25">
          <mxGeometry width="50" height="50" relative="1" as="geometry">
            <mxPoint x="553" y="335" as="sourcePoint" />
            <mxPoint x="603" y="285" as="targetPoint" />
            <Array as="points">
              <mxPoint x="605" y="354" />
              <mxPoint x="608" y="227" />
            </Array>
          </mxGeometry>
        </mxCell>
        <mxCell id="qUA6m6YGM7ILWIVQ5BVL-33" value="" style="group" vertex="1" connectable="0" parent="1">
          <mxGeometry x="494" y="322" width="120" height="60" as="geometry" />
        </mxCell>
        <mxCell id="qUA6m6YGM7ILWIVQ5BVL-34" value="" style="group" vertex="1" connectable="0" parent="qUA6m6YGM7ILWIVQ5BVL-33">
          <mxGeometry x="23" y="6" width="81" height="52" as="geometry" />
        </mxCell>
        <mxCell id="qUA6m6YGM7ILWIVQ5BVL-35" value="" style="rounded=1;whiteSpace=wrap;html=1;" vertex="1" parent="qUA6m6YGM7ILWIVQ5BVL-34">
          <mxGeometry x="9" width="63" height="52" as="geometry" />
        </mxCell>
        <mxCell id="qUA6m6YGM7ILWIVQ5BVL-36" value="No" style="text;html=1;align=center;verticalAlign=middle;whiteSpace=wrap;rounded=0;" vertex="1" parent="qUA6m6YGM7ILWIVQ5BVL-34">
          <mxGeometry y="10" width="81" height="30" as="geometry" />
        </mxCell>
        <mxCell id="qUA6m6YGM7ILWIVQ5BVL-38" value="" style="endArrow=classic;html=1;rounded=0;exitX=0;exitY=0.5;exitDx=0;exitDy=0;entryX=1;entryY=0.5;entryDx=0;entryDy=0;" edge="1" parent="1" source="qUA6m6YGM7ILWIVQ5BVL-30" target="qUA6m6YGM7ILWIVQ5BVL-45">
          <mxGeometry width="50" height="50" relative="1" as="geometry">
            <mxPoint x="313" y="387" as="sourcePoint" />
            <mxPoint x="218" y="352" as="targetPoint" />
          </mxGeometry>
        </mxCell>
        <mxCell id="qUA6m6YGM7ILWIVQ5BVL-39" value="" style="group" vertex="1" connectable="0" parent="1">
          <mxGeometry x="298" y="203" width="63" height="52" as="geometry" />
        </mxCell>
        <mxCell id="qUA6m6YGM7ILWIVQ5BVL-28" value="" style="rounded=1;whiteSpace=wrap;html=1;" vertex="1" parent="qUA6m6YGM7ILWIVQ5BVL-39">
          <mxGeometry width="63" height="52" as="geometry" />
        </mxCell>
        <mxCell id="qUA6m6YGM7ILWIVQ5BVL-29" value="Yes" style="text;html=1;align=center;verticalAlign=middle;whiteSpace=wrap;rounded=0;" vertex="1" parent="qUA6m6YGM7ILWIVQ5BVL-39">
          <mxGeometry x="2" y="14" width="60" height="30" as="geometry" />
        </mxCell>
        <mxCell id="qUA6m6YGM7ILWIVQ5BVL-40" value="" style="group" vertex="1" connectable="0" parent="1">
          <mxGeometry x="322" y="323" width="63" height="52" as="geometry" />
        </mxCell>
        <mxCell id="qUA6m6YGM7ILWIVQ5BVL-56" value="" style="group" vertex="1" connectable="0" parent="qUA6m6YGM7ILWIVQ5BVL-40">
          <mxGeometry width="63" height="52" as="geometry" />
        </mxCell>
        <mxCell id="qUA6m6YGM7ILWIVQ5BVL-41" value="" style="rounded=1;whiteSpace=wrap;html=1;" vertex="1" parent="qUA6m6YGM7ILWIVQ5BVL-56">
          <mxGeometry width="63" height="52" as="geometry" />
        </mxCell>
        <mxCell id="qUA6m6YGM7ILWIVQ5BVL-42" value="Yes" style="text;html=1;align=center;verticalAlign=middle;whiteSpace=wrap;rounded=0;" vertex="1" parent="qUA6m6YGM7ILWIVQ5BVL-56">
          <mxGeometry x="2" y="14" width="60" height="30" as="geometry" />
        </mxCell>
        <mxCell id="qUA6m6YGM7ILWIVQ5BVL-44" value="" style="group" vertex="1" connectable="0" parent="1">
          <mxGeometry x="87" y="325" width="120" height="60" as="geometry" />
        </mxCell>
        <mxCell id="qUA6m6YGM7ILWIVQ5BVL-45" value="" style="rounded=1;whiteSpace=wrap;html=1;" vertex="1" parent="qUA6m6YGM7ILWIVQ5BVL-44">
          <mxGeometry width="120" height="60" as="geometry" />
        </mxCell>
        <mxCell id="qUA6m6YGM7ILWIVQ5BVL-46" value="Add to cart" style="text;html=1;align=center;verticalAlign=middle;whiteSpace=wrap;rounded=0;" vertex="1" parent="qUA6m6YGM7ILWIVQ5BVL-44">
          <mxGeometry x="20" y="15" width="81" height="30" as="geometry" />
        </mxCell>
        <mxCell id="qUA6m6YGM7ILWIVQ5BVL-47" value="" style="rhombus;whiteSpace=wrap;html=1;" vertex="1" parent="1">
          <mxGeometry x="94" y="428" width="112" height="96" as="geometry" />
        </mxCell>
        <mxCell id="qUA6m6YGM7ILWIVQ5BVL-48" value="Proceed to Checkout" style="text;html=1;align=center;verticalAlign=middle;whiteSpace=wrap;rounded=0;" vertex="1" parent="1">
          <mxGeometry x="101.5" y="458" width="97" height="30" as="geometry" />
        </mxCell>
        <mxCell id="qUA6m6YGM7ILWIVQ5BVL-49" value="" style="endArrow=classic;html=1;rounded=0;exitX=1.086;exitY=0.667;exitDx=0;exitDy=0;exitPerimeter=0;entryX=1;entryY=0.5;entryDx=0;entryDy=0;" edge="1" parent="1" source="qUA6m6YGM7ILWIVQ5BVL-48" target="qUA6m6YGM7ILWIVQ5BVL-25">
          <mxGeometry width="50" height="50" relative="1" as="geometry">
            <mxPoint x="248" y="475" as="sourcePoint" />
            <mxPoint x="696" y="210" as="targetPoint" />
            <Array as="points">
              <mxPoint x="681" y="476" />
              <mxPoint x="692" y="226" />
            </Array>
          </mxGeometry>
        </mxCell>
        <mxCell id="qUA6m6YGM7ILWIVQ5BVL-50" value="" style="group" vertex="1" connectable="0" parent="1">
          <mxGeometry x="278" y="443" width="120" height="60" as="geometry" />
        </mxCell>
        <mxCell id="qUA6m6YGM7ILWIVQ5BVL-51" value="" style="group" vertex="1" connectable="0" parent="qUA6m6YGM7ILWIVQ5BVL-50">
          <mxGeometry x="23" y="6" width="81" height="52" as="geometry" />
        </mxCell>
        <mxCell id="qUA6m6YGM7ILWIVQ5BVL-52" value="" style="rounded=1;whiteSpace=wrap;html=1;" vertex="1" parent="qUA6m6YGM7ILWIVQ5BVL-51">
          <mxGeometry x="9" width="63" height="52" as="geometry" />
        </mxCell>
        <mxCell id="qUA6m6YGM7ILWIVQ5BVL-53" value="No" style="text;html=1;align=center;verticalAlign=middle;whiteSpace=wrap;rounded=0;" vertex="1" parent="qUA6m6YGM7ILWIVQ5BVL-51">
          <mxGeometry y="10" width="81" height="30" as="geometry" />
        </mxCell>
        <mxCell id="qUA6m6YGM7ILWIVQ5BVL-54" value="" style="endArrow=classic;html=1;rounded=0;entryX=0.5;entryY=0;entryDx=0;entryDy=0;exitX=0.5;exitY=1;exitDx=0;exitDy=0;" edge="1" parent="1" source="qUA6m6YGM7ILWIVQ5BVL-45" target="qUA6m6YGM7ILWIVQ5BVL-47">
          <mxGeometry width="50" height="50" relative="1" as="geometry">
            <mxPoint x="-5" y="470" as="sourcePoint" />
            <mxPoint x="45" y="420" as="targetPoint" />
          </mxGeometry>
        </mxCell>
        <mxCell id="qUA6m6YGM7ILWIVQ5BVL-55" value="" style="endArrow=classic;html=1;rounded=0;exitX=0;exitY=0.5;exitDx=0;exitDy=0;entryX=0.5;entryY=0;entryDx=0;entryDy=0;" edge="1" parent="1" source="qUA6m6YGM7ILWIVQ5BVL-47" target="qUA6m6YGM7ILWIVQ5BVL-78">
          <mxGeometry width="50" height="50" relative="1" as="geometry">
            <mxPoint x="-45" y="499" as="sourcePoint" />
            <mxPoint x="-80" y="622" as="targetPoint" />
            <Array as="points">
              <mxPoint x="-80" y="478" />
            </Array>
          </mxGeometry>
        </mxCell>
        <mxCell id="qUA6m6YGM7ILWIVQ5BVL-57" value="" style="group" vertex="1" connectable="0" parent="1">
          <mxGeometry x="-28" y="446" width="63" height="52" as="geometry" />
        </mxCell>
        <mxCell id="qUA6m6YGM7ILWIVQ5BVL-58" value="" style="rounded=1;whiteSpace=wrap;html=1;" vertex="1" parent="qUA6m6YGM7ILWIVQ5BVL-57">
          <mxGeometry width="63" height="52" as="geometry" />
        </mxCell>
        <mxCell id="qUA6m6YGM7ILWIVQ5BVL-59" value="Yes" style="text;html=1;align=center;verticalAlign=middle;whiteSpace=wrap;rounded=0;" vertex="1" parent="qUA6m6YGM7ILWIVQ5BVL-57">
          <mxGeometry x="2" y="14" width="60" height="30" as="geometry" />
        </mxCell>
        <mxCell id="qUA6m6YGM7ILWIVQ5BVL-60" value="" style="group" vertex="1" connectable="0" parent="1">
          <mxGeometry x="92" y="579" width="120" height="60" as="geometry" />
        </mxCell>
        <mxCell id="qUA6m6YGM7ILWIVQ5BVL-61" value="" style="rounded=1;whiteSpace=wrap;html=1;" vertex="1" parent="qUA6m6YGM7ILWIVQ5BVL-60">
          <mxGeometry width="120" height="60" as="geometry" />
        </mxCell>
        <mxCell id="qUA6m6YGM7ILWIVQ5BVL-62" value="Collect Payment Info" style="text;html=1;align=center;verticalAlign=middle;whiteSpace=wrap;rounded=0;" vertex="1" parent="qUA6m6YGM7ILWIVQ5BVL-60">
          <mxGeometry x="20" y="15" width="81" height="30" as="geometry" />
        </mxCell>
        <mxCell id="qUA6m6YGM7ILWIVQ5BVL-65" value="" style="group" vertex="1" connectable="0" parent="1">
          <mxGeometry x="108" y="672" width="80" height="80" as="geometry" />
        </mxCell>
        <mxCell id="qUA6m6YGM7ILWIVQ5BVL-63" value="" style="rhombus;whiteSpace=wrap;html=1;" vertex="1" parent="qUA6m6YGM7ILWIVQ5BVL-65">
          <mxGeometry width="80" height="80" as="geometry" />
        </mxCell>
        <mxCell id="qUA6m6YGM7ILWIVQ5BVL-64" value="Validate" style="text;html=1;align=center;verticalAlign=middle;whiteSpace=wrap;rounded=0;" vertex="1" parent="qUA6m6YGM7ILWIVQ5BVL-65">
          <mxGeometry x="10" y="25" width="60" height="30" as="geometry" />
        </mxCell>
        <mxCell id="qUA6m6YGM7ILWIVQ5BVL-66" value="" style="group" vertex="1" connectable="0" parent="1">
          <mxGeometry x="107" y="864" width="80" height="80" as="geometry" />
        </mxCell>
        <mxCell id="qUA6m6YGM7ILWIVQ5BVL-67" value="" style="rhombus;whiteSpace=wrap;html=1;" vertex="1" parent="qUA6m6YGM7ILWIVQ5BVL-66">
          <mxGeometry width="80" height="80" as="geometry" />
        </mxCell>
        <mxCell id="qUA6m6YGM7ILWIVQ5BVL-68" value="Back Out" style="text;html=1;align=center;verticalAlign=middle;whiteSpace=wrap;rounded=0;" vertex="1" parent="qUA6m6YGM7ILWIVQ5BVL-66">
          <mxGeometry x="10" y="25" width="60" height="30" as="geometry" />
        </mxCell>
        <mxCell id="qUA6m6YGM7ILWIVQ5BVL-69" value="" style="rounded=1;whiteSpace=wrap;html=1;" vertex="1" parent="1">
          <mxGeometry x="91" y="1045" width="120" height="60" as="geometry" />
        </mxCell>
        <mxCell id="qUA6m6YGM7ILWIVQ5BVL-70" value="Confirmation" style="text;html=1;align=center;verticalAlign=middle;whiteSpace=wrap;rounded=0;" vertex="1" parent="1">
          <mxGeometry x="111" y="1060" width="81" height="30" as="geometry" />
        </mxCell>
        <mxCell id="qUA6m6YGM7ILWIVQ5BVL-71" value="" style="group" vertex="1" connectable="0" parent="1">
          <mxGeometry x="-24" y="142" width="120" height="60" as="geometry" />
        </mxCell>
        <mxCell id="qUA6m6YGM7ILWIVQ5BVL-72" value="" style="rounded=1;whiteSpace=wrap;html=1;" vertex="1" parent="qUA6m6YGM7ILWIVQ5BVL-71">
          <mxGeometry width="120" height="60" as="geometry" />
        </mxCell>
        <mxCell id="qUA6m6YGM7ILWIVQ5BVL-73" value="Force User to correct" style="text;html=1;align=center;verticalAlign=middle;whiteSpace=wrap;rounded=0;" vertex="1" parent="qUA6m6YGM7ILWIVQ5BVL-71">
          <mxGeometry x="20" y="15" width="81" height="30" as="geometry" />
        </mxCell>
        <mxCell id="qUA6m6YGM7ILWIVQ5BVL-78" value="" style="rhombus;whiteSpace=wrap;html=1;" vertex="1" parent="1">
          <mxGeometry x="-119" y="568" width="80" height="80" as="geometry" />
        </mxCell>
        <mxCell id="qUA6m6YGM7ILWIVQ5BVL-79" value="User Logged in" style="text;html=1;align=center;verticalAlign=middle;whiteSpace=wrap;rounded=0;" vertex="1" parent="1">
          <mxGeometry x="-109" y="588" width="60" height="30" as="geometry" />
        </mxCell>
        <mxCell id="qUA6m6YGM7ILWIVQ5BVL-80" value="" style="endArrow=classic;html=1;rounded=0;entryX=0;entryY=0.5;entryDx=0;entryDy=0;" edge="1" parent="1" target="qUA6m6YGM7ILWIVQ5BVL-61">
          <mxGeometry width="50" height="50" relative="1" as="geometry">
            <mxPoint x="-39" y="609" as="sourcePoint" />
            <mxPoint x="37" y="571" as="targetPoint" />
          </mxGeometry>
        </mxCell>
        <mxCell id="qUA6m6YGM7ILWIVQ5BVL-81" value="" style="group" vertex="1" connectable="0" parent="1">
          <mxGeometry x="-16" y="580" width="63" height="52" as="geometry" />
        </mxCell>
        <mxCell id="qUA6m6YGM7ILWIVQ5BVL-82" value="" style="rounded=1;whiteSpace=wrap;html=1;" vertex="1" parent="qUA6m6YGM7ILWIVQ5BVL-81">
          <mxGeometry width="63" height="52" as="geometry" />
        </mxCell>
        <mxCell id="qUA6m6YGM7ILWIVQ5BVL-83" value="Yes" style="text;html=1;align=center;verticalAlign=middle;whiteSpace=wrap;rounded=0;" vertex="1" parent="qUA6m6YGM7ILWIVQ5BVL-81">
          <mxGeometry x="2" y="14" width="60" height="30" as="geometry" />
        </mxCell>
        <mxCell id="qUA6m6YGM7ILWIVQ5BVL-84" value="" style="endArrow=classic;html=1;rounded=0;exitX=0;exitY=0.5;exitDx=0;exitDy=0;entryX=0;entryY=0.5;entryDx=0;entryDy=0;" edge="1" parent="1" source="qUA6m6YGM7ILWIVQ5BVL-78" target="qUA6m6YGM7ILWIVQ5BVL-5">
          <mxGeometry width="50" height="50" relative="1" as="geometry">
            <mxPoint x="-136" y="607" as="sourcePoint" />
            <mxPoint x="-233" y="145" as="targetPoint" />
            <Array as="points">
              <mxPoint x="-236" y="608" />
              <mxPoint x="-227" y="124" />
            </Array>
          </mxGeometry>
        </mxCell>
        <mxCell id="qUA6m6YGM7ILWIVQ5BVL-85" value="" style="group" vertex="1" connectable="0" parent="1">
          <mxGeometry x="278" y="443" width="120" height="60" as="geometry" />
        </mxCell>
        <mxCell id="qUA6m6YGM7ILWIVQ5BVL-86" value="" style="group" vertex="1" connectable="0" parent="qUA6m6YGM7ILWIVQ5BVL-85">
          <mxGeometry x="23" y="6" width="81" height="52" as="geometry" />
        </mxCell>
        <mxCell id="qUA6m6YGM7ILWIVQ5BVL-87" value="" style="rounded=1;whiteSpace=wrap;html=1;" vertex="1" parent="qUA6m6YGM7ILWIVQ5BVL-86">
          <mxGeometry x="9" width="63" height="52" as="geometry" />
        </mxCell>
        <mxCell id="qUA6m6YGM7ILWIVQ5BVL-88" value="No" style="text;html=1;align=center;verticalAlign=middle;whiteSpace=wrap;rounded=0;" vertex="1" parent="qUA6m6YGM7ILWIVQ5BVL-86">
          <mxGeometry y="10" width="81" height="30" as="geometry" />
        </mxCell>
        <mxCell id="qUA6m6YGM7ILWIVQ5BVL-89" value="" style="group" vertex="1" connectable="0" parent="1">
          <mxGeometry x="-243" y="573" width="120" height="60" as="geometry" />
        </mxCell>
        <mxCell id="qUA6m6YGM7ILWIVQ5BVL-90" value="" style="group" vertex="1" connectable="0" parent="qUA6m6YGM7ILWIVQ5BVL-89">
          <mxGeometry x="23" y="6" width="81" height="52" as="geometry" />
        </mxCell>
        <mxCell id="qUA6m6YGM7ILWIVQ5BVL-91" value="" style="rounded=1;whiteSpace=wrap;html=1;" vertex="1" parent="qUA6m6YGM7ILWIVQ5BVL-90">
          <mxGeometry x="9" width="63" height="52" as="geometry" />
        </mxCell>
        <mxCell id="qUA6m6YGM7ILWIVQ5BVL-92" value="No" style="text;html=1;align=center;verticalAlign=middle;whiteSpace=wrap;rounded=0;" vertex="1" parent="qUA6m6YGM7ILWIVQ5BVL-90">
          <mxGeometry y="10" width="81" height="30" as="geometry" />
        </mxCell>
        <mxCell id="qUA6m6YGM7ILWIVQ5BVL-93" value="" style="group" vertex="1" connectable="0" parent="1">
          <mxGeometry x="-288" y="276" width="120" height="60" as="geometry" />
        </mxCell>
        <mxCell id="qUA6m6YGM7ILWIVQ5BVL-94" value="" style="rounded=1;whiteSpace=wrap;html=1;" vertex="1" parent="qUA6m6YGM7ILWIVQ5BVL-93">
          <mxGeometry width="120" height="60" as="geometry" />
        </mxCell>
        <mxCell id="qUA6m6YGM7ILWIVQ5BVL-95" value="Force User to log in" style="text;html=1;align=center;verticalAlign=middle;whiteSpace=wrap;rounded=0;" vertex="1" parent="qUA6m6YGM7ILWIVQ5BVL-93">
          <mxGeometry x="20" y="15" width="81" height="30" as="geometry" />
        </mxCell>
        <mxCell id="qUA6m6YGM7ILWIVQ5BVL-96" value="" style="endArrow=classic;html=1;rounded=0;exitX=1.147;exitY=0.487;exitDx=0;exitDy=0;exitPerimeter=0;entryX=1;entryY=0.5;entryDx=0;entryDy=0;" edge="1" parent="1" source="qUA6m6YGM7ILWIVQ5BVL-64" target="qUA6m6YGM7ILWIVQ5BVL-61">
          <mxGeometry width="50" height="50" relative="1" as="geometry">
            <mxPoint x="248" y="708" as="sourcePoint" />
            <mxPoint x="340" y="596" as="targetPoint" />
            <Array as="points">
              <mxPoint x="340" y="712" />
              <mxPoint x="342" y="609" />
            </Array>
          </mxGeometry>
        </mxCell>
        <mxCell id="qUA6m6YGM7ILWIVQ5BVL-74" value="" style="group" vertex="1" connectable="0" parent="1">
          <mxGeometry x="277" y="625" width="120" height="60" as="geometry" />
        </mxCell>
        <mxCell id="qUA6m6YGM7ILWIVQ5BVL-75" value="" style="rounded=1;whiteSpace=wrap;html=1;" vertex="1" parent="qUA6m6YGM7ILWIVQ5BVL-74">
          <mxGeometry width="120" height="60" as="geometry" />
        </mxCell>
        <mxCell id="qUA6m6YGM7ILWIVQ5BVL-76" value="Force User to correct" style="text;html=1;align=center;verticalAlign=middle;whiteSpace=wrap;rounded=0;" vertex="1" parent="qUA6m6YGM7ILWIVQ5BVL-74">
          <mxGeometry x="20" y="15" width="81" height="30" as="geometry" />
        </mxCell>
        <mxCell id="qUA6m6YGM7ILWIVQ5BVL-97" value="" style="rounded=1;whiteSpace=wrap;html=1;" vertex="1" parent="1">
          <mxGeometry x="202" y="688" width="63" height="52" as="geometry" />
        </mxCell>
        <mxCell id="qUA6m6YGM7ILWIVQ5BVL-98" value="No" style="text;html=1;align=center;verticalAlign=middle;whiteSpace=wrap;rounded=0;" vertex="1" parent="1">
          <mxGeometry x="193" y="698" width="81" height="30" as="geometry" />
        </mxCell>
        <mxCell id="qUA6m6YGM7ILWIVQ5BVL-102" value="" style="endArrow=classic;html=1;rounded=0;exitX=0.5;exitY=1;exitDx=0;exitDy=0;entryX=0.5;entryY=0;entryDx=0;entryDy=0;" edge="1" parent="1" source="qUA6m6YGM7ILWIVQ5BVL-63" target="qUA6m6YGM7ILWIVQ5BVL-67">
          <mxGeometry width="50" height="50" relative="1" as="geometry">
            <mxPoint x="163" y="823" as="sourcePoint" />
            <mxPoint x="213" y="773" as="targetPoint" />
          </mxGeometry>
        </mxCell>
        <mxCell id="qUA6m6YGM7ILWIVQ5BVL-99" value="" style="group" vertex="1" connectable="0" parent="1">
          <mxGeometry x="116.5" y="778" width="63" height="52" as="geometry" />
        </mxCell>
        <mxCell id="qUA6m6YGM7ILWIVQ5BVL-100" value="" style="rounded=1;whiteSpace=wrap;html=1;" vertex="1" parent="qUA6m6YGM7ILWIVQ5BVL-99">
          <mxGeometry width="63" height="52" as="geometry" />
        </mxCell>
        <mxCell id="qUA6m6YGM7ILWIVQ5BVL-101" value="Yes" style="text;html=1;align=center;verticalAlign=middle;whiteSpace=wrap;rounded=0;" vertex="1" parent="qUA6m6YGM7ILWIVQ5BVL-99">
          <mxGeometry x="2" y="14" width="60" height="30" as="geometry" />
        </mxCell>
        <mxCell id="qUA6m6YGM7ILWIVQ5BVL-105" value="" style="endArrow=classic;html=1;rounded=0;entryX=0.5;entryY=0;entryDx=0;entryDy=0;exitX=0.5;exitY=1;exitDx=0;exitDy=0;" edge="1" parent="1" source="qUA6m6YGM7ILWIVQ5BVL-67" target="qUA6m6YGM7ILWIVQ5BVL-69">
          <mxGeometry width="50" height="50" relative="1" as="geometry">
            <mxPoint x="4" y="915" as="sourcePoint" />
            <mxPoint x="54" y="865" as="targetPoint" />
          </mxGeometry>
        </mxCell>
        <mxCell id="qUA6m6YGM7ILWIVQ5BVL-107" value="" style="group" vertex="1" connectable="0" parent="1">
          <mxGeometry x="109" y="962" width="81" height="52" as="geometry" />
        </mxCell>
        <mxCell id="qUA6m6YGM7ILWIVQ5BVL-104" value="" style="rounded=1;whiteSpace=wrap;html=1;" vertex="1" parent="qUA6m6YGM7ILWIVQ5BVL-107">
          <mxGeometry x="11" width="63" height="52" as="geometry" />
        </mxCell>
        <mxCell id="qUA6m6YGM7ILWIVQ5BVL-103" value="No" style="text;html=1;align=center;verticalAlign=middle;whiteSpace=wrap;rounded=0;" vertex="1" parent="qUA6m6YGM7ILWIVQ5BVL-107">
          <mxGeometry y="12" width="81" height="30" as="geometry" />
        </mxCell>
        <mxCell id="qUA6m6YGM7ILWIVQ5BVL-108" value="" style="endArrow=classic;html=1;rounded=0;exitX=1;exitY=0.5;exitDx=0;exitDy=0;entryX=1;entryY=0.5;entryDx=0;entryDy=0;" edge="1" parent="1" source="qUA6m6YGM7ILWIVQ5BVL-67" target="qUA6m6YGM7ILWIVQ5BVL-25">
          <mxGeometry width="50" height="50" relative="1" as="geometry">
            <mxPoint x="287" y="908" as="sourcePoint" />
            <mxPoint x="783" y="396" as="targetPoint" />
            <Array as="points">
              <mxPoint x="766" y="904" />
              <mxPoint x="796" y="224" />
            </Array>
          </mxGeometry>
        </mxCell>
        <mxCell id="qUA6m6YGM7ILWIVQ5BVL-110" value="" style="group" vertex="1" connectable="0" parent="1">
          <mxGeometry x="434" y="878" width="63" height="52" as="geometry" />
        </mxCell>
        <mxCell id="qUA6m6YGM7ILWIVQ5BVL-111" value="" style="rounded=1;whiteSpace=wrap;html=1;" vertex="1" parent="qUA6m6YGM7ILWIVQ5BVL-110">
          <mxGeometry width="63" height="52" as="geometry" />
        </mxCell>
        <mxCell id="qUA6m6YGM7ILWIVQ5BVL-112" value="Yes" style="text;html=1;align=center;verticalAlign=middle;whiteSpace=wrap;rounded=0;" vertex="1" parent="qUA6m6YGM7ILWIVQ5BVL-110">
          <mxGeometry x="2" y="14" width="60" height="30" as="geometry" />
        </mxCell>
      </root>
    </mxGraphModel>
  </diagram>
</mxfile>
